<?xml version="1.0" standalone="no"?>
<!DOCTYPE svg PUBLIC "-//W3C//DTD SVG 20010904//EN"
 "http://www.w3.org/TR/2001/REC-SVG-20010904/DTD/svg10.dtd">
<svg version="1.0" xmlns="http://www.w3.org/2000/svg"
 width="342.000000pt" height="342.000000pt" viewBox="0 0 342.000000 342.000000"
 preserveAspectRatio="xMidYMid meet">
<metadata>
Created by potrace 1.11, written by Peter Selinger 2001-2013
</metadata>
<g transform="translate(0.000000,342.000000) scale(0.100000,-0.100000)"
fill="#000000" stroke="none">
<path d="M1136 2429 c-36 -112 -66 -207 -66 -211 0 -4 128 -8 284 -8 426 0
554 -19 589 -87 30 -57 39 -151 44 -465 l6 -318 -436 0 -436 0 -61 -187 c-34
-104 -65 -200 -70 -215 l-9 -28 729 0 729 0 66 202 c36 111 65 208 65 215 0
10 -27 13 -110 13 l-110 0 0 403 c0 221 -5 443 -10 492 -20 170 -96 279 -231
333 -127 51 -163 55 -546 59 l-362 5 -65 -203z"/>
</g>
</svg>
