<?xml version="1.0" encoding="UTF-8" standalone="no"?>
<svg width="492px" height="496px" viewBox="0 0 492 496" version="1.1" xmlns="http://www.w3.org/2000/svg" xmlns:xlink="http://www.w3.org/1999/xlink" xmlns:sketch="http://www.bohemiancoding.com/sketch/ns">
    <!-- Generator: Sketch 3.2 (9961) - http://www.bohemiancoding.com/sketch -->
    <title>1455062552_cmyk-03</title>
    <desc>Created with Sketch.</desc>
    <defs></defs>
    <g id="Page-1" stroke="none" stroke-width="1" fill="none" fill-rule="evenodd" sketch:type="MSPage">
        <g id="companies" sketch:type="MSArtboardGroup" transform="translate(-72.000000, -933.000000)">
            <g id="1455062552_cmyk-03" sketch:type="MSLayerGroup" transform="translate(192.000000, 1059.000000)">
                <path d="M202.424979,80.975199 C201.403358,80.975199 200.424306,81.0391855 199.42397,81.1245009 C199.466537,80.1007165 199.509105,79.076932 199.509105,78.0531476 C199.509105,38.7440906 170.499351,6.23893448 132.741976,0.864066136 L132.635557,0.074898959 L121.674425,0.074898959 C84.0021847,0.074898959 52.5873673,26.906583 45.3934593,62.547079 C20.2360649,63.2722596 0.0590683893,84.2171831 0.0590683893,109.598506 C0.0803521409,135.427734 20.9809962,156.69259 46.7769031,156.69259 L202.446262,156.69259 C223.134069,156.69259 239.905665,139.56553 239.905665,118.833895 C239.884381,98.1022596 223.112785,80.975199 202.424979,80.975199 L202.424979,80.975199 Z" id="Shape" fill="#2196F3" sketch:type="MSShapeGroup"></path>
                <path d="M213.407394,80.975199 C212.385774,80.975199 211.406722,81.0391855 210.406385,81.1245009 C210.448953,80.1007165 210.49152,79.076932 210.49152,78.0531476 C210.49152,34.9688855 175.650019,0.0535701164 132.656841,0.0535701164 C94.9846005,0.0535701164 63.5697832,26.8852541 56.3758751,62.5257502 C31.2184807,63.2509308 11.0414842,84.1958543 11.0414842,109.577177 C11.0414842,135.427734 31.9421283,156.69259 57.7380352,156.69259 L213.407394,156.69259 C234.095201,156.69259 250.866797,139.56553 250.866797,118.833895 C250.845513,98.1022596 234.095201,80.975199 213.407394,80.975199 L213.407394,80.975199 Z" id="Shape" fill="#39A9ED" sketch:type="MSShapeGroup"></path>
                <path d="M181.332781,103.370484 L181.332781,82.0416412 L169.222326,82.0416412 C168.307125,78.7143417 167.008816,75.557673 165.3274,72.6142927 L173.883468,64.040098 L158.835855,48.9606062 L150.279787,57.534801 C147.363913,55.8498224 144.192634,54.548763 140.872369,53.6316228 L140.872369,41.5168402 L119.609901,41.5168402 L119.609901,53.6529516 C116.289636,54.5700919 113.139641,55.8711513 110.202483,57.5561298 L101.646415,48.9819351 L86.5988024,64.0614268 L95.1548705,72.6356216 C93.4734541,75.557673 92.1751453,78.7356705 91.259944,82.06297 L79.1707731,82.06297 L79.1707731,103.391813 L91.2812277,103.391813 C92.196429,106.719112 93.4947379,109.875781 95.1761543,112.819161 L86.6200861,121.393356 L101.667699,136.472848 L110.223767,127.898653 C113.139641,129.583631 116.31092,130.884691 119.631185,131.801831 L119.631185,143.895285 L140.914936,143.895285 L140.914936,131.759173 C144.235202,130.842033 147.385197,129.540974 150.322355,127.855995 L158.878423,136.43019 L173.926035,121.350698 L165.369967,112.776503 C167.051383,109.854452 168.349692,106.676454 169.264894,103.349155 L181.332781,103.349155 L181.332781,103.370484 Z M130.251777,115.463938 C117.715647,115.463938 107.542014,105.268751 107.542014,92.7060625 C107.542014,80.1433742 117.715647,69.9481874 130.251777,69.9481874 C142.787907,69.9481874 152.96154,80.1433742 152.96154,92.7060625 C152.96154,105.268751 142.787907,115.463938 130.251777,115.463938 L130.251777,115.463938 Z" id="Shape" fill="#8CD2FD" sketch:type="MSShapeGroup"></path>
                <path d="M189.846281,124.699326 C189.846281,127.045499 187.930744,128.965095 185.589531,128.965095 L60.0153966,128.965095 C57.674184,128.965095 55.7586463,127.045499 55.7586463,124.699326 L55.7586463,99.1047152 C55.7586463,96.7585426 57.674184,94.8389467 60.0153966,94.8389467 L185.589531,94.8389467 C187.930744,94.8389467 189.846281,96.7585426 189.846281,99.1047152 L189.846281,124.699326 L189.846281,124.699326 Z" id="Shape" fill="#000000" sketch:type="MSShapeGroup"></path>
                <path d="M130.251777,111.902021 L130.251777,224.944887" id="Shape" stroke="#EC008C" stroke-width="4" sketch:type="MSShapeGroup"></path>
                <path d="M198.359782,124.699326 C198.359782,127.045499 196.444244,128.965095 194.103032,128.965095 L68.5288973,128.965095 C66.1876846,128.965095 64.272147,127.045499 64.272147,124.699326 L64.272147,99.1047152 C64.272147,96.7585426 66.1876846,94.8389467 68.5288973,94.8389467 L194.103032,94.8389467 C196.444244,94.8389467 198.359782,96.7585426 198.359782,99.1047152 L198.359782,124.699326 L198.359782,124.699326 Z" id="Shape" fill="#414042" sketch:type="MSShapeGroup"></path>
                <path d="M189.846281,167.357012 C189.846281,169.703184 187.930744,171.62278 185.589531,171.62278 L60.0153966,171.62278 C57.674184,171.62278 55.7586463,169.703184 55.7586463,167.357012 L55.7586463,141.7624 C55.7586463,139.416228 57.674184,137.496632 60.0153966,137.496632 L185.589531,137.496632 C187.930744,137.496632 189.846281,139.416228 189.846281,141.7624 L189.846281,167.357012 L189.846281,167.357012 Z" id="Shape" fill="#000000" sketch:type="MSShapeGroup"></path>
                <path d="M198.359782,167.357012 C198.359782,169.703184 196.444244,171.62278 194.103032,171.62278 L68.5288973,171.62278 C66.1876846,171.62278 64.272147,169.703184 64.272147,167.357012 L64.272147,141.7624 C64.272147,139.416228 66.1876846,137.496632 68.5288973,137.496632 L194.103032,137.496632 C196.444244,137.496632 198.359782,139.416228 198.359782,141.7624 L198.359782,167.357012 L198.359782,167.357012 Z" id="Shape" fill="#414042" sketch:type="MSShapeGroup"></path>
                <path d="M189.846281,210.014697 C189.846281,212.36087 187.930744,214.280465 185.589531,214.280465 L60.0153966,214.280465 C57.674184,214.280465 55.7586463,212.36087 55.7586463,210.014697 L55.7586463,184.420086 C55.7586463,182.073913 57.674184,180.154317 60.0153966,180.154317 L185.589531,180.154317 C187.930744,180.154317 189.846281,182.073913 189.846281,184.420086 L189.846281,210.014697 L189.846281,210.014697 Z" id="Shape" fill="#000000" sketch:type="MSShapeGroup"></path>
                <path d="M198.359782,210.014697 C198.359782,212.36087 196.444244,214.280465 194.103032,214.280465 L68.5288973,214.280465 C66.1876846,214.280465 64.272147,212.36087 64.272147,210.014697 L64.272147,184.420086 C64.272147,182.073913 66.1876846,180.154317 68.5288973,180.154317 L194.103032,180.154317 C196.444244,180.154317 198.359782,182.073913 198.359782,184.420086 L198.359782,210.014697 L198.359782,210.014697 Z" id="Shape" fill="#414042" sketch:type="MSShapeGroup"></path>
                <path d="M140.893653,235.609308 L194.103032,235.609308" id="Shape" stroke="#EC008C" stroke-width="4" sketch:type="MSShapeGroup"></path>
                <path d="M64.272147,235.609308 L121.738276,235.609308" id="Shape" stroke="#EC008C" stroke-width="4" sketch:type="MSShapeGroup"></path>
                <ellipse id="Oval" stroke="#EC008C" stroke-width="4" sketch:type="MSShapeGroup" cx="130.805154" cy="233.604397" rx="8.91789192" ry="8.93678506"></ellipse>
                <ellipse id="Oval" fill="#FFF200" sketch:type="MSShapeGroup" cx="81.9376608" cy="110.920894" rx="4.74627661" ry="4.7563319"></ellipse>
                <ellipse id="Oval" fill="#EC008C" sketch:type="MSShapeGroup" cx="98.5815545" cy="110.920894" rx="4.74627661" ry="4.7563319"></ellipse>
                <ellipse id="Oval" fill="#E6E7E8" sketch:type="MSShapeGroup" cx="115.225448" cy="110.920894" rx="4.74627661" ry="4.7563319"></ellipse>
                <ellipse id="Oval" fill="#EC008C" sketch:type="MSShapeGroup" cx="81.9376608" cy="153.813197" rx="4.74627661" ry="4.7563319"></ellipse>
                <ellipse id="Oval" fill="#00C0F3" sketch:type="MSShapeGroup" cx="98.5815545" cy="153.813197" rx="4.74627661" ry="4.7563319"></ellipse>
                <ellipse id="Oval" fill="#E6E7E8" sketch:type="MSShapeGroup" cx="115.225448" cy="153.813197" rx="4.74627661" ry="4.7563319"></ellipse>
                <ellipse id="Oval" fill="#00AEEF" sketch:type="MSShapeGroup" cx="81.9376608" cy="196.68417" rx="4.74627661" ry="4.7563319"></ellipse>
                <ellipse id="Oval" fill="#EC008C" sketch:type="MSShapeGroup" cx="98.5815545" cy="196.68417" rx="4.74627661" ry="4.7563319"></ellipse>
                <ellipse id="Oval" fill="#E6E7E8" sketch:type="MSShapeGroup" cx="115.225448" cy="196.68417" rx="4.74627661" ry="4.7563319"></ellipse>
                <rect id="Rectangle-path" fill="#D1D3D4" sketch:type="MSShapeGroup" x="151.535528" y="107.636252" width="29.7972522" height="8.53153705"></rect>
                <rect id="Rectangle-path" fill="#D1D3D4" sketch:type="MSShapeGroup" x="151.535528" y="150.293938" width="29.7972522" height="8.53153705"></rect>
                <rect id="Rectangle-path" fill="#D1D3D4" sketch:type="MSShapeGroup" x="151.535528" y="192.951623" width="29.7972522" height="8.53153705"></rect>
            </g>
        </g>
    </g>
</svg>