<?xml version="1.0" encoding="UTF-8" standalone="no"?>
<svg width="331px" height="173px" viewBox="0 0 331 173" version="1.1" xmlns="http://www.w3.org/2000/svg" xmlns:xlink="http://www.w3.org/1999/xlink" xmlns:sketch="http://www.bohemiancoding.com/sketch/ns">
    <!-- Generator: Sketch 3.2 (9961) - http://www.bohemiancoding.com/sketch -->
    <title>manifold + labs 2 + IT Support For Your </title>
    <desc>Created with Sketch.</desc>
    <defs></defs>
    <g id="Page-1" stroke="none" stroke-width="1" fill="none" fill-rule="evenodd" sketch:type="MSPage">
        <g id="betlabs-2" sketch:type="MSArtboardGroup" transform="translate(-751.000000, -488.000000)" fill="#39A9ED">
            <g id="manifold-+-labs-2-+-IT-Support-For-Your--3" sketch:type="MSLayerGroup" transform="translate(761.000000, 514.000000)">
                <g id="manifold-+-labs-2" transform="translate(57.000000, 0.000000)" sketch:type="MSShapeGroup">
                    <g id="manifold">
                        <g id="Page-1">
                            <g id="Artboard-1">
                                <path d="M0.0381654713,57.9943182 L4.67767885,43.7013282 L33.592627,43.7013282 L33.592627,29.9877824 C33.592627,22.5193344 32.9834053,18.0689155 31.7649406,16.6363891 C30.546476,15.2038646 26.7193063,14.4876133 20.2833144,14.4876133 L2.80312689,14.4876133 L7.44264026,0.194621322 L22.2984573,0.194621322 C31.7025018,0.194621322 37.9821856,1.61103033 41.1376947,4.44388989 C43.0122563,6.08566003 44.2463229,8.13784204 44.8399331,10.6004992 C45.4335451,13.0631544 45.7303444,17.336523 45.7303444,23.4207315 L45.7303444,43.7013282 L53.2285485,43.7013282 L48.6358987,57.9943182 L0.0381654713,57.9943182 L0.0381654713,57.9943182 Z" id="ב"></path>
                            </g>
                        </g>
                    </g>
                    <path d="M70.5733333,0.549772727 L70.5733333,57.9943182 L67.5333333,57.9943182 L67.5333333,0.549772727 L70.5733333,0.549772727 Z M107.533333,49.7879545 L107.373333,49.7879545 C106.893331,51.0215971 106.200005,52.1881763 105.293333,53.2877273 C104.386662,54.3872782 103.280007,55.3661321 101.973333,56.2243182 C100.66666,57.0825043 99.1866749,57.7529521 97.5333333,58.2356818 C95.8799917,58.7184115 94.0666765,58.9597727 92.0933333,58.9597727 C87.7199781,58.9597727 84.3333453,58.0077368 81.9333333,56.1036364 C79.5333213,54.1995359 78.3333333,51.2629744 78.3333333,47.2938636 C78.3333333,44.8802152 78.8133285,42.9090986 79.7733333,41.3804545 C80.7333381,39.8518105 81.9466593,38.6450044 83.4133333,37.76 C84.8800073,36.8749956 86.5066577,36.2447746 88.2933333,35.8693182 C90.0800089,35.4938618 91.7999917,35.2256826 93.4533333,35.0647727 L98.1733333,34.6625 C100.360011,34.5015901 102.079994,34.2468199 103.333333,33.8981818 C104.586673,33.5495437 105.53333,33.0668213 106.173333,32.45 C106.813337,31.8331787 107.213333,31.0420503 107.373333,30.0765909 C107.533334,29.1111315 107.613333,27.9043254 107.613333,26.4561364 C107.613333,25.3297671 107.400002,24.2838685 106.973333,23.3184091 C106.546665,22.3529497 105.880005,21.4947765 104.973333,20.7438636 C104.066662,19.9929508 102.893341,19.4029567 101.453333,18.9738636 C100.013326,18.5447706 98.2533437,18.3302273 96.1733333,18.3302273 C92.4933149,18.3302273 89.5200113,19.2420363 87.2533333,21.0656818 C84.9866553,22.8893273 83.7466677,25.6515724 83.5333333,29.3525 L80.4933333,29.3525 C80.7066677,24.7933863 82.1599865,21.3741023 84.8533333,19.0945455 C87.5466801,16.8149886 91.3733085,15.6752273 96.3333333,15.6752273 C101.293358,15.6752273 104.906655,16.6540811 107.173333,18.6118182 C109.440011,20.5695552 110.573333,23.130666 110.573333,26.2952273 L110.573333,50.3511364 C110.573333,50.9411393 110.586667,51.5311334 110.613333,52.1211364 C110.64,52.7111393 110.733333,53.2474976 110.893333,53.7302273 C111.053334,54.212957 111.319998,54.6018167 111.693333,54.8968182 C112.066669,55.1918197 112.599997,55.3393182 113.293333,55.3393182 C113.826669,55.3393182 114.573329,55.2588644 115.533333,55.0979545 L115.533333,57.6725 C114.733329,57.8870465 113.906671,57.9943182 113.053333,57.9943182 C111.826661,57.9943182 110.853337,57.8334107 110.133333,57.5115909 C109.41333,57.1897711 108.866669,56.7606845 108.493333,56.2243182 C108.119998,55.6879519 107.866667,55.0577309 107.733333,54.3336364 C107.599999,53.6095418 107.533333,52.8184134 107.533333,51.9602273 L107.533333,49.7879545 Z M107.533333,34.5015909 C106.786663,35.4134136 105.653341,36.0302257 104.133333,36.3520455 C102.613326,36.6738652 100.920009,36.9152265 99.0533333,37.0761364 L93.9333333,37.5588636 C92.4399925,37.7197735 90.9466741,37.9477258 89.4533333,38.2427273 C87.9599925,38.5377287 86.6133393,39.0338602 85.4133333,39.7311364 C84.2133273,40.4284126 83.2400037,41.3804485 82.4933333,42.5872727 C81.7466629,43.7940969 81.3733333,45.3629449 81.3733333,47.2938636 C81.3733333,50.3511517 82.3333237,52.6172654 84.2533333,54.0922727 C86.1733429,55.5672801 88.8133165,56.3047727 92.1733333,56.3047727 C95.6400173,56.3047727 98.3866565,55.6745518 100.413333,54.4140909 C102.44001,53.1536301 103.986661,51.7054627 105.053333,50.0695455 C106.120005,48.4336282 106.799999,46.8513713 107.093333,45.3227273 C107.386668,43.7940833 107.533333,42.7615936 107.533333,42.2252273 L107.533333,34.5015909 Z M120.973333,0.549772727 L124.013333,0.549772727 L124.013333,25.4102273 L124.173333,25.4102273 C124.760003,23.8011283 125.586661,22.3931879 126.653333,21.1863636 C127.720005,19.9795394 128.94666,18.9604587 130.333333,18.1290909 C131.720007,17.2977231 133.213325,16.6809111 134.813333,16.2786364 C136.413341,15.8763616 138.066658,15.6752273 139.773333,15.6752273 C142.813349,15.6752273 145.439989,16.2115855 147.653333,17.2843182 C149.866678,18.3570508 151.719993,19.8320361 153.213333,21.7093182 C154.706674,23.5866003 155.81333,25.7722603 156.533333,28.2663636 C157.253337,30.760467 157.613333,33.4556673 157.613333,36.3520455 C157.613333,41.2866156 156.946673,45.2422578 155.613333,48.2190909 C154.279993,51.195924 152.680009,53.4754466 150.813333,55.0577273 C148.946657,56.6400079 147.00001,57.6859065 144.973333,58.1954545 C142.946657,58.7050025 141.213341,58.9597727 139.773333,58.9597727 C137.05332,58.9597727 134.746676,58.5306861 132.853333,57.6725 C130.959991,56.8143139 129.400006,55.8086421 128.173333,54.6554545 C126.946661,53.502267 126.013337,52.3625056 125.373333,51.2361364 C124.73333,50.1097671 124.333334,49.2784118 124.173333,48.7420455 L124.013333,48.7420455 L124.013333,57.9943182 L120.973333,57.9943182 L120.973333,0.549772727 Z M139.773333,56.3047727 C142.493347,56.3047727 144.786657,55.7147786 146.653333,54.5347727 C148.520009,53.3547668 150.039994,51.8127368 151.213333,49.9086364 C152.386673,48.0045359 153.239997,45.8591028 153.773333,43.4722727 C154.306669,41.0854426 154.573333,38.7120573 154.573333,36.3520455 C154.573333,34.0456703 154.26667,31.8197835 153.653333,29.6743182 C153.039997,27.5288529 152.106673,25.6113721 150.853333,23.9218182 C149.599994,22.2322643 148.053343,20.8779596 146.213333,19.8588636 C144.373324,18.8397676 142.226679,18.3302273 139.773333,18.3302273 C137.106653,18.3302273 134.786677,18.7861318 132.813333,19.6979545 C130.83999,20.6097773 129.21334,21.8702192 127.933333,23.4793182 C126.653327,25.0884171 125.693337,26.992489 125.053333,29.1915909 C124.41333,31.3906928 124.093333,33.7774871 124.093333,36.3520455 C124.093333,38.8729671 124.386664,41.3402152 124.973333,43.7538636 C125.560003,46.1675121 126.479994,48.2995362 127.733333,50.15 C128.986673,52.0004638 130.59999,53.488858 132.573333,54.6152273 C134.546677,55.7415965 136.946653,56.3047727 139.773333,56.3047727 L139.773333,56.3047727 Z M166.173333,44.2365909 C166.280001,46.1675097 166.706663,47.8704472 167.453333,49.3454545 C168.200004,50.8204619 169.173327,52.0809039 170.373333,53.1268182 C171.573339,54.1727325 172.973325,54.963861 174.573333,55.5002273 C176.173341,56.0365936 177.906657,56.3047727 179.773333,56.3047727 C181.106673,56.3047727 182.533326,56.1840921 184.053333,55.9427273 C185.573341,55.7013624 186.98666,55.2588669 188.293333,54.6152273 C189.600007,53.9715877 190.679996,53.0731876 191.533333,51.92 C192.386671,50.7668124 192.813333,49.3052361 192.813333,47.5352273 C192.813333,45.2288521 192.120007,43.4856877 190.733333,42.3056818 C189.34666,41.1256759 187.600011,40.2138669 185.493333,39.5702273 C183.386656,38.9265877 181.120012,38.4036384 178.693333,38.0013636 C176.266655,37.5990889 174.000011,36.9956858 171.893333,36.1911364 C169.786656,35.3865869 168.040007,34.2468256 166.653333,32.7718182 C165.26666,31.2968108 164.573333,29.1379688 164.573333,26.2952273 C164.573333,24.2570353 165.026662,22.5540977 165.933333,21.1863636 C166.840005,19.8186295 167.999993,18.732504 169.413333,17.9279545 C170.826674,17.1234051 172.413325,16.5468199 174.173333,16.1981818 C175.933342,15.8495437 177.693325,15.6752273 179.453333,15.6752273 C181.586677,15.6752273 183.586657,15.9165885 185.453333,16.3993182 C187.320009,16.8820479 188.933327,17.6597674 190.293333,18.7325 C191.65334,19.8052326 192.719996,21.1729462 193.493333,22.8356818 C194.266671,24.4984174 194.653333,26.5097609 194.653333,28.8697727 L191.613333,28.8697727 C191.613333,26.9924906 191.30667,25.3834158 190.693333,24.0425 C190.079997,22.7015842 189.226672,21.6154587 188.133333,20.7840909 C187.039995,19.9527231 185.746674,19.3359111 184.253333,18.9336364 C182.759993,18.5313616 181.160009,18.3302273 179.453333,18.3302273 C178.06666,18.3302273 176.666674,18.4643168 175.253333,18.7325 C173.839993,19.0006832 172.573339,19.4565877 171.453333,20.1002273 C170.333328,20.7438669 169.413337,21.5752222 168.693333,22.5943182 C167.97333,23.6134142 167.613333,24.8470382 167.613333,26.2952273 C167.613333,27.9579629 168.013329,29.2988585 168.813333,30.3179545 C169.613337,31.3370506 170.66666,32.1549969 171.973333,32.7718182 C173.280007,33.3886394 174.746659,33.8847708 176.373333,34.2602273 C178.000008,34.6356837 179.639992,35.0111345 181.293333,35.3865909 C183.32001,35.7620473 185.226658,36.2045429 187.013333,36.7140909 C188.800009,37.2236389 190.34666,37.9209047 191.653333,38.8059091 C192.960007,39.6909135 193.986663,40.8306748 194.733333,42.2252273 C195.480004,43.6197797 195.853333,45.389762 195.853333,47.5352273 C195.853333,49.7879658 195.346672,51.6384019 194.333333,53.0865909 C193.319995,54.53478 192.040008,55.7013592 190.493333,56.5863636 C188.946659,57.4713681 187.226676,58.0881801 185.333333,58.4368182 C183.439991,58.7854563 181.586676,58.9597727 179.773333,58.9597727 C177.426655,58.9597727 175.253343,58.6513667 173.253333,58.0345455 C171.253323,57.4177242 169.506674,56.4790972 168.013333,55.2186364 C166.519993,53.9581755 165.346671,52.4161455 164.493333,50.5925 C163.639996,48.7688545 163.186667,46.6502393 163.133333,44.2365909 L166.173333,44.2365909 Z" id="labs"></path>
                </g>
                <path d="M10.8369141,94.359375 L11.4169922,94.359375 L11.4169922,110 L10.8369141,110 L10.8369141,95.4550781 L10.7724609,95.4335938 L0.728515625,110 L0.1484375,110 L0.1484375,94.359375 L0.728515625,94.359375 L0.728515625,108.87207 L0.79296875,108.893555 L10.8369141,94.359375 Z M25.7900391,94.9394531 L20.3115234,94.9394531 L20.3115234,110 L19.7314453,110 L19.7314453,94.9394531 L13.8662109,94.9394531 L13.8662109,94.359375 L25.7900391,94.359375 L25.7900391,94.9394531 Z M44.9648438,110 L44.3847656,110 L44.3847656,94.9394531 L34.3945312,94.9394531 L34.3945312,110 L33.8144531,110 L33.8144531,94.359375 L44.9648438,94.359375 L44.9648438,110 Z M48.0478516,103.962891 C48.0478516,102.258455 48.5187127,100.865565 49.4604492,99.7841797 C50.4021857,98.7027941 51.6249925,98.1621094 53.1289062,98.1621094 C54.6399815,98.1621094 55.866369,98.7027941 56.8081055,99.7841797 C57.7498419,100.865565 58.2207031,102.258455 58.2207031,103.962891 L58.2207031,104.414062 C58.2207031,106.12566 57.7498419,107.52213 56.8081055,108.603516 C55.866369,109.684901 54.6471429,110.225586 53.1503906,110.225586 C51.6393154,110.225586 50.4111375,109.684901 49.4658203,108.603516 C48.5205031,107.52213 48.0478516,106.12566 48.0478516,104.414062 L48.0478516,103.962891 Z M48.6279297,104.414062 C48.6279297,105.875007 49.0361287,107.112137 49.8525391,108.125488 C50.6689494,109.13884 51.7682223,109.645508 53.1503906,109.645508 C54.5110745,109.645508 55.5996053,109.137049 56.4160156,108.120117 C57.232426,107.103185 57.640625,105.867846 57.640625,104.414062 L57.640625,103.962891 C57.640625,102.537753 57.2288453,101.311366 56.4052734,100.283691 C55.5817016,99.256017 54.4895901,98.7421875 53.1289063,98.7421875 C51.7610609,98.7421875 50.6689494,99.256017 49.8525391,100.283691 C49.0361287,101.311366 48.6279297,102.537753 48.6279297,103.962891 L48.6279297,104.414062 Z M60.6269531,109.419922 C61.1998727,109.419922 61.6796856,108.811204 62.0664062,107.59375 C62.4531269,106.376296 62.6894527,104.650402 62.7753906,102.416016 L62.9902344,98.3769531 L69.3388672,98.3769531 L69.3388672,109.419922 L70.0478516,109.419922 L70.0478516,113.738281 L69.4677734,113.738281 L69.4677734,110 L60.21875,110 L60.21875,113.738281 L59.7460938,113.738281 L59.7460938,109.419922 L60.6269531,109.419922 Z M63.3554688,102.416016 C63.2838538,104.141936 63.1137709,105.60823 62.8452148,106.814941 C62.5766588,108.021653 62.2096377,108.889971 61.7441406,109.419922 L68.7587891,109.419922 L68.7587891,98.9570312 L63.5380859,98.9570312 L63.3554688,102.416016 Z M72.8515625,109.419922 C73.424482,109.419922 73.9042949,108.811204 74.2910156,107.59375 C74.6777363,106.376296 74.9140621,104.650402 75,102.416016 L75.2148438,98.3769531 L81.5634766,98.3769531 L81.5634766,109.419922 L82.2724609,109.419922 L82.2724609,113.738281 L81.6923828,113.738281 L81.6923828,110 L72.4433594,110 L72.4433594,113.738281 L71.9707031,113.738281 L71.9707031,109.419922 L72.8515625,109.419922 Z M75.5800781,102.416016 C75.5084632,104.141936 75.3383802,105.60823 75.0698242,106.814941 C74.8012682,108.021653 74.4342471,108.889971 73.96875,109.419922 L80.9833984,109.419922 L80.9833984,98.9570312 L75.7626953,98.9570312 L75.5800781,102.416016 Z M89.3085938,110.225586 C87.9407484,110.225586 86.7859748,109.695643 85.8442383,108.635742 C84.9025018,107.575841 84.4316406,106.240242 84.4316406,104.628906 L84.4316406,103.941406 C84.4316406,102.258455 84.8989211,100.874517 85.8334961,99.7895508 C86.7680711,98.7045844 87.9443288,98.1621094 89.3623047,98.1621094 C90.6513736,98.1621094 91.6790326,98.5864215 92.4453125,99.4350586 C93.2115924,100.283696 93.5947266,101.44205 93.5947266,102.910156 L93.5947266,103.801758 L85.0117188,103.801758 L85.0117188,103.941406 L85.0117188,104.628906 C85.0117188,106.046882 85.4127564,107.237463 86.2148438,108.200684 C87.0169311,109.163905 88.0481708,109.645508 89.3085938,109.645508 C90.0032587,109.645508 90.671058,109.516603 91.3120117,109.258789 C91.9529654,109.000975 92.4739563,108.657229 92.875,108.227539 L93.1865234,108.678711 C92.7783183,109.129885 92.2519563,109.500487 91.6074219,109.790527 C90.9628874,110.080568 90.196619,110.225586 89.3085938,110.225586 L89.3085938,110.225586 Z M89.3623047,98.7421875 C88.1591737,98.7421875 87.1726927,99.1593383 86.402832,99.9936523 C85.6329714,100.827966 85.1979172,101.882481 85.0976562,103.157227 L85.1298828,103.22168 L93.0146484,103.22168 L93.0146484,102.867188 C93.0146484,101.671218 92.6888053,100.684737 92.0371094,99.9077148 C91.3854134,99.1306927 90.4938208,98.7421875 89.3623047,98.7421875 L89.3623047,98.7421875 Z M105.282227,104.40332 C105.282227,106.193694 104.895512,107.611648 104.12207,108.657227 C103.348629,109.702805 102.281582,110.225586 100.920898,110.225586 C100.01855,110.225586 99.232588,110.046551 98.5629883,109.688477 C97.8933886,109.330402 97.3652363,108.843428 96.9785156,108.227539 L96.9785156,114.46875 L96.3984375,114.46875 L96.3984375,106.820312 C96.391276,106.798828 96.385905,106.780925 96.3823242,106.766602 C96.3787435,106.752279 96.3769531,106.737956 96.3769531,106.723633 L96.3769531,101.99707 L96.3769531,101.980957 C96.3769531,101.977376 96.3841145,101.954102 96.3984375,101.911133 L96.3984375,98.3769531 L96.8496094,98.3769531 L96.9677734,100.428711 C97.3544941,99.7268845 97.880856,99.1736674 98.546875,98.769043 C99.212894,98.3644185 99.9970658,98.1621094 100.899414,98.1621094 C102.267259,98.1621094 103.339677,98.7045844 104.116699,99.7895508 C104.893721,100.874517 105.282227,102.33723 105.282227,104.177734 L105.282227,104.40332 Z M104.691406,104.177734 C104.691406,102.566398 104.367354,101.257655 103.719238,100.251465 C103.071123,99.2452749 102.134772,98.7421875 100.910156,98.7421875 C99.8072862,98.7421875 98.9461294,99.0179009 98.3266602,99.5693359 C97.7071909,100.120771 97.2578139,100.801103 96.9785156,101.610352 L96.9785156,107.164062 C97.2721369,107.923181 97.7519498,108.526528 98.4179688,108.974121 C99.0839877,109.421714 99.92187,109.645508 100.931641,109.645508 C102.156256,109.645508 103.089027,109.172856 103.72998,108.227539 C104.370934,107.282222 104.691406,106.007495 104.691406,104.40332 L104.691406,104.177734 Z M116.045898,104.328125 L114.799805,104.328125 L114.799805,110 L114.219727,110 L114.219727,104.328125 L112.984375,104.328125 L107.634766,110 L106.947266,110 L106.925781,109.946289 L112.361328,104.070312 L107.602539,98.4306641 L107.624023,98.3769531 L108.268555,98.3769531 L112.887695,103.748047 L114.219727,103.748047 L114.219727,98.3769531 L114.799805,98.3769531 L114.799805,103.748047 L116.164062,103.748047 L120.772461,98.3769531 L121.438477,98.3769531 L121.459961,98.4306641 L116.668945,104.070312 L122.125977,109.935547 L122.09375,110 L121.416992,110 L116.045898,104.328125 Z M126.863281,104.317383 L125.058594,104.317383 L125.058594,110 L124.467773,110 L124.467773,98.3769531 L125.058594,98.3769531 L125.058594,103.748047 L126.970703,103.748047 L131.901367,98.3769531 L132.664062,98.3769531 L132.685547,98.4306641 L127.49707,104.05957 L133.351562,109.935547 L133.330078,110 L132.545898,110 L126.863281,104.317383 Z M143.008789,107.851562 C142.607745,108.553389 142.00977,109.12451 141.214844,109.564941 C140.419918,110.005373 139.456711,110.225586 138.325195,110.225586 C137.24381,110.225586 136.395185,109.930179 135.779297,109.339355 C135.163408,108.748532 134.855469,107.951828 134.855469,106.949219 C134.855469,105.975256 135.315588,105.158857 136.23584,104.5 C137.156092,103.841143 138.307285,103.511719 139.689453,103.511719 L143.008789,103.511719 L143.008789,101.814453 C143.008789,100.847651 142.699059,100.093915 142.07959,99.5532227 C141.460121,99.0125298 140.588222,98.7421875 139.463867,98.7421875 C138.411128,98.7421875 137.564294,98.9964167 136.92334,99.5048828 C136.282386,100.013349 135.961914,100.668616 135.961914,101.470703 L135.478516,101.449219 L135.457031,101.395508 C135.414062,100.49316 135.76497,99.7286815 136.509766,99.1020508 C137.254561,98.47542 138.239252,98.1621094 139.463867,98.1621094 C140.709967,98.1621094 141.708981,98.4772104 142.460938,99.1074219 C143.212894,99.7376334 143.588867,100.647129 143.588867,101.835938 L143.588867,107.658203 C143.588867,108.066408 143.612142,108.463865 143.658691,108.850586 C143.705241,109.237307 143.782226,109.620441 143.889648,110 L143.245117,110 C143.152018,109.491534 143.089356,109.11019 143.057129,108.855957 C143.024902,108.601724 143.008789,108.327801 143.008789,108.03418 L143.008789,107.851562 Z M138.325195,109.65625 C139.478196,109.65625 140.453935,109.402021 141.252441,108.893555 C142.050948,108.385089 142.636391,107.658208 143.008789,106.712891 L143.008789,104.102539 L139.72168,104.102539 C138.518549,104.102539 137.503422,104.380043 136.67627,104.935059 C135.849117,105.490074 135.435547,106.175777 135.435547,106.992188 C135.435547,107.77279 135.698728,108.411944 136.225098,108.909668 C136.751467,109.407392 137.451493,109.65625 138.325195,109.65625 L138.325195,109.65625 Z M152.891602,110 L152.891602,94.359375 L157.005859,94.359375 C158.624357,94.359375 159.88118,94.6923795 160.776367,95.3583984 C161.671554,96.0244174 162.119141,97.0270115 162.119141,98.3662109 C162.119141,99.2399132 161.906089,99.9846974 161.47998,100.600586 C161.053872,101.216474 160.450525,101.628254 159.669922,101.835938 L159.65918,101.900391 C160.583012,102.022136 161.360023,102.446448 161.990234,103.17334 C162.620446,103.900231 162.935547,104.739904 162.935547,105.692383 C162.935547,107.060228 162.493331,108.120113 161.608887,108.87207 C160.724442,109.624027 159.555346,110 158.101562,110 L152.891602,110 Z M153.47168,102.276367 L153.47168,109.419922 L158.101562,109.419922 C159.419277,109.419922 160.457678,109.094079 161.216797,108.442383 C161.975915,107.790687 162.355469,106.881191 162.355469,105.713867 C162.355469,104.682612 161.972335,103.851891 161.206055,103.22168 C160.439775,102.591468 159.404954,102.276367 158.101562,102.276367 L153.47168,102.276367 Z M153.47168,101.696289 L157.424805,101.696289 C158.778327,101.674805 159.800615,101.384768 160.491699,100.826172 C161.182783,100.267575 161.52832,99.4332738 161.52832,98.3232422 C161.52832,97.2060491 161.146976,96.3627958 160.384277,95.793457 C159.621578,95.2241182 158.49545,94.9394531 157.005859,94.9394531 L153.47168,94.9394531 L153.47168,101.696289 Z M173.097656,107.851562 C172.696613,108.553389 172.098637,109.12451 171.303711,109.564941 C170.508785,110.005373 169.545579,110.225586 168.414062,110.225586 C167.332677,110.225586 166.484053,109.930179 165.868164,109.339355 C165.252276,108.748532 164.944336,107.951828 164.944336,106.949219 C164.944336,105.975256 165.404455,105.158857 166.324707,104.5 C167.244959,103.841143 168.396152,103.511719 169.77832,103.511719 L173.097656,103.511719 L173.097656,101.814453 C173.097656,100.847651 172.787926,100.093915 172.168457,99.5532227 C171.548988,99.0125298 170.677089,98.7421875 169.552734,98.7421875 C168.499995,98.7421875 167.653161,98.9964167 167.012207,99.5048828 C166.371253,100.013349 166.050781,100.668616 166.050781,101.470703 L165.567383,101.449219 L165.545898,101.395508 C165.502929,100.49316 165.853837,99.7286815 166.598633,99.1020508 C167.343428,98.47542 168.328119,98.1621094 169.552734,98.1621094 C170.798834,98.1621094 171.797848,98.4772104 172.549805,99.1074219 C173.301762,99.7376334 173.677734,100.647129 173.677734,101.835938 L173.677734,107.658203 C173.677734,108.066408 173.701009,108.463865 173.747559,108.850586 C173.794108,109.237307 173.871093,109.620441 173.978516,110 L173.333984,110 C173.240885,109.491534 173.178223,109.11019 173.145996,108.855957 C173.113769,108.601724 173.097656,108.327801 173.097656,108.03418 L173.097656,107.851562 Z M168.414062,109.65625 C169.567063,109.65625 170.542802,109.402021 171.341309,108.893555 C172.139815,108.385089 172.725259,107.658208 173.097656,106.712891 L173.097656,104.102539 L169.810547,104.102539 C168.607416,104.102539 167.592289,104.380043 166.765137,104.935059 C165.937984,105.490074 165.524414,106.175777 165.524414,106.992188 C165.524414,107.77279 165.787595,108.411944 166.313965,108.909668 C166.840335,109.407392 167.54036,109.65625 168.414062,109.65625 L168.414062,109.65625 Z M177.996094,98.3769531 L177.996094,109.419922 L184.086914,109.419922 L184.086914,98.3769531 L184.677734,98.3769531 L184.677734,109.419922 L190.671875,109.419922 L190.671875,98.3769531 L191.251953,98.3769531 L191.251953,110 L177.416016,110 L177.416016,98.3769531 L177.996094,98.3769531 Z M198.610352,110.225586 C197.242506,110.225586 196.087733,109.695643 195.145996,108.635742 C194.20426,107.575841 193.733398,106.240242 193.733398,104.628906 L193.733398,103.941406 C193.733398,102.258455 194.200679,100.874517 195.135254,99.7895508 C196.069829,98.7045844 197.246087,98.1621094 198.664063,98.1621094 C199.953131,98.1621094 200.98079,98.5864215 201.74707,99.4350586 C202.51335,100.283696 202.896484,101.44205 202.896484,102.910156 L202.896484,103.801758 L194.313477,103.801758 L194.313477,103.941406 L194.313477,104.628906 C194.313477,106.046882 194.714514,107.237463 195.516602,108.200684 C196.318689,109.163905 197.349929,109.645508 198.610352,109.645508 C199.305016,109.645508 199.972816,109.516603 200.61377,109.258789 C201.254723,109.000975 201.775714,108.657229 202.176758,108.227539 L202.488281,108.678711 C202.080076,109.129885 201.553714,109.500487 200.90918,109.790527 C200.264645,110.080568 199.498377,110.225586 198.610352,110.225586 L198.610352,110.225586 Z M198.664063,98.7421875 C197.460931,98.7421875 196.47445,99.1593383 195.70459,99.9936523 C194.934729,100.827966 194.499675,101.882481 194.399414,103.157227 L194.431641,103.22168 L202.316406,103.22168 L202.316406,102.867188 C202.316406,101.671218 201.990563,100.684737 201.338867,99.9077148 C200.687171,99.1306927 199.795579,98.7421875 198.664063,98.7421875 L198.664063,98.7421875 Z M212.682617,98.9677734 L206.280273,98.9677734 L206.280273,110 L205.700195,110 L205.700195,98.3769531 L212.682617,98.3769531 L212.682617,98.9677734 Z M213.885742,103.962891 C213.885742,102.258455 214.356603,100.865565 215.29834,99.7841797 C216.240076,98.7027941 217.462883,98.1621094 218.966797,98.1621094 C220.477872,98.1621094 221.70426,98.7027941 222.645996,99.7841797 C223.587733,100.865565 224.058594,102.258455 224.058594,103.962891 L224.058594,104.414062 C224.058594,106.12566 223.587733,107.52213 222.645996,108.603516 C221.70426,109.684901 220.485034,110.225586 218.988281,110.225586 C217.477206,110.225586 216.249028,109.684901 215.303711,108.603516 C214.358394,107.52213 213.885742,106.12566 213.885742,104.414062 L213.885742,103.962891 Z M214.46582,104.414062 C214.46582,105.875007 214.874019,107.112137 215.69043,108.125488 C216.50684,109.13884 217.606113,109.645508 218.988281,109.645508 C220.348965,109.645508 221.437496,109.137049 222.253906,108.120117 C223.070317,107.103185 223.478516,105.867846 223.478516,104.414062 L223.478516,103.962891 C223.478516,102.537753 223.066736,101.311366 222.243164,100.283691 C221.419592,99.256017 220.327481,98.7421875 218.966797,98.7421875 C217.598951,98.7421875 216.50684,99.256017 215.69043,100.283691 C214.874019,101.311366 214.46582,102.537753 214.46582,103.962891 L214.46582,104.414062 Z M241.589844,94.9394531 L232.910156,94.9394531 L232.910156,101.320312 L236.874023,101.320312 C238.492521,101.320312 239.740393,101.72135 240.617676,102.523438 C241.494959,103.325525 241.933594,104.371087 241.933594,105.660156 C241.933594,106.956387 241.494959,108.003739 240.617676,108.802246 C239.740393,109.600753 238.492521,110 236.874023,110 L232.330078,110 L232.330078,94.359375 L241.589844,94.359375 L241.589844,94.9394531 Z M232.910156,101.900391 L232.910156,109.419922 L236.874023,109.419922 C238.363614,109.419922 239.480791,109.060062 240.225586,108.340332 C240.970381,107.620602 241.342773,106.720057 241.342773,105.638672 C241.342773,104.600255 240.968591,103.717614 240.220215,102.990723 C239.471839,102.263831 238.356453,101.900391 236.874023,101.900391 L232.910156,101.900391 Z M253.621094,98.3769531 L254.211914,98.3769531 L254.211914,110 L253.621094,110 L253.621094,99.515625 L253.556641,99.4941406 L246.43457,110 L245.854492,110 L245.854492,98.3769531 L246.43457,98.3769531 L246.43457,108.861328 L246.499023,108.882812 L253.621094,98.3769531 Z M266.554688,101.384766 C266.554688,101.986331 266.339846,102.525225 265.910156,103.001465 C265.480467,103.477704 264.871749,103.826822 264.083984,104.048828 C264.964848,104.242188 265.630857,104.578774 266.082031,105.058594 C266.533205,105.538414 266.758789,106.147132 266.758789,106.884766 C266.758789,107.908859 266.327316,108.714515 265.464355,109.301758 C264.601395,109.889 263.478848,110.182617 262.09668,110.182617 C260.800449,110.182617 259.679692,109.892581 258.734375,109.3125 C257.789058,108.732419 257.33789,107.905279 257.380859,106.831055 L257.402344,106.766602 L257.885742,106.766602 C257.885742,107.597335 258.274247,108.275876 259.05127,108.802246 C259.828292,109.328616 260.843418,109.591797 262.09668,109.591797 C263.385749,109.591797 264.386552,109.357261 265.099121,108.888184 C265.81169,108.419106 266.167969,107.762048 266.167969,106.916992 C266.167969,106.036128 265.824222,105.389813 265.136719,104.978027 C264.449215,104.566241 263.425137,104.360352 262.064453,104.360352 L260.291992,104.360352 L260.291992,103.769531 L262.064453,103.769531 C263.396491,103.769531 264.379391,103.560061 265.013184,103.141113 C265.646976,102.722166 265.963867,102.12598 265.963867,101.352539 C265.963867,100.579098 265.641605,99.9578474 264.99707,99.4887695 C264.352536,99.0196917 263.385749,98.7851562 262.09668,98.7851562 C260.943679,98.7851562 259.985844,99.0268531 259.223145,99.5102539 C258.460445,99.9936548 258.079102,100.629228 258.079102,101.416992 L257.595703,101.416992 L257.574219,101.352539 C257.53125,100.421545 257.948401,99.6642282 258.825684,99.0805664 C259.702967,98.4969046 260.793288,98.2050781 262.09668,98.2050781 C263.471687,98.2050781 264.558427,98.4807915 265.356934,99.0322266 C266.15544,99.5836616 266.554688,100.367833 266.554688,101.384766 L266.554688,101.384766 Z M278.306641,110 L277.71582,110 L277.71582,104.317383 L270.529297,104.317383 L270.529297,110 L269.949219,110 L269.949219,98.3769531 L270.529297,98.3769531 L270.529297,103.737305 L277.71582,103.737305 L277.71582,98.3769531 L278.306641,98.3769531 L278.306641,110 Z M286.0625,110.225586 C284.694655,110.225586 283.539881,109.695643 282.598145,108.635742 C281.656408,107.575841 281.185547,106.240242 281.185547,104.628906 L281.185547,103.941406 C281.185547,102.258455 281.652827,100.874517 282.587402,99.7895508 C283.521977,98.7045844 284.698235,98.1621094 286.116211,98.1621094 C287.40528,98.1621094 288.432939,98.5864215 289.199219,99.4350586 C289.965499,100.283696 290.348633,101.44205 290.348633,102.910156 L290.348633,103.801758 L281.765625,103.801758 L281.765625,103.941406 L281.765625,104.628906 C281.765625,106.046882 282.166663,107.237463 282.96875,108.200684 C283.770837,109.163905 284.802077,109.645508 286.0625,109.645508 C286.757165,109.645508 287.424964,109.516603 288.065918,109.258789 C288.706872,109.000975 289.227863,108.657229 289.628906,108.227539 L289.94043,108.678711 C289.532225,109.129885 289.005863,109.500487 288.361328,109.790527 C287.716794,110.080568 286.950525,110.225586 286.0625,110.225586 L286.0625,110.225586 Z M286.116211,98.7421875 C284.91308,98.7421875 283.926599,99.1593383 283.156738,99.9936523 C282.386878,100.827966 281.951823,101.882481 281.851562,103.157227 L281.883789,103.22168 L289.768555,103.22168 L289.768555,102.867188 C289.768555,101.671218 289.442712,100.684737 288.791016,99.9077148 C288.13932,99.1306927 287.247727,98.7421875 286.116211,98.7421875 L286.116211,98.7421875 Z M297.094727,109.645508 C298.075851,109.645508 298.942379,109.376956 299.694336,108.839844 C300.446293,108.302732 300.822266,107.497076 300.822266,106.422852 L301.316406,106.422852 L301.337891,106.487305 C301.366537,107.625982 300.949386,108.533688 300.086426,109.210449 C299.223466,109.88721 298.226243,110.225586 297.094727,110.225586 C295.612297,110.225586 294.450362,109.692063 293.608887,108.625 C292.767411,107.557937 292.34668,106.154306 292.34668,104.414062 L292.34668,103.962891 C292.34668,102.229809 292.765621,100.829758 293.603516,99.7626953 C294.44141,98.6956327 295.597974,98.1621094 297.073242,98.1621094 C298.276373,98.1621094 299.29508,98.5148077 300.129395,99.2202148 C300.963709,99.925622 301.366537,100.919264 301.337891,102.201172 L301.316406,102.265625 L300.822266,102.265625 C300.822266,101.126947 300.457035,100.255049 299.726562,99.6499023 C298.99609,99.0447561 298.111659,98.7421875 297.073242,98.7421875 C295.712558,98.7421875 294.681319,99.2291618 293.979492,100.203125 C293.277666,101.177088 292.926758,102.430331 292.926758,103.962891 L292.926758,104.414062 C292.926758,105.960945 293.277666,107.219559 293.979492,108.189941 C294.681319,109.160324 295.71972,109.645508 297.094727,109.645508 L297.094727,109.645508 Z M311.607422,107.851562 C311.206378,108.553389 310.608402,109.12451 309.813477,109.564941 C309.018551,110.005373 308.055344,110.225586 306.923828,110.225586 C305.842443,110.225586 304.993818,109.930179 304.37793,109.339355 C303.762041,108.748532 303.454102,107.951828 303.454102,106.949219 C303.454102,105.975256 303.914221,105.158857 304.834473,104.5 C305.754725,103.841143 306.905918,103.511719 308.288086,103.511719 L311.607422,103.511719 L311.607422,101.814453 C311.607422,100.847651 311.297692,100.093915 310.678223,99.5532227 C310.058753,99.0125298 309.186855,98.7421875 308.0625,98.7421875 C307.00976,98.7421875 306.162926,98.9964167 305.521973,99.5048828 C304.881019,100.013349 304.560547,100.668616 304.560547,101.470703 L304.077148,101.449219 L304.055664,101.395508 C304.012695,100.49316 304.363603,99.7286815 305.108398,99.1020508 C305.853194,98.47542 306.837885,98.1621094 308.0625,98.1621094 C309.3086,98.1621094 310.307613,98.4772104 311.05957,99.1074219 C311.811527,99.7376334 312.1875,100.647129 312.1875,101.835938 L312.1875,107.658203 C312.1875,108.066408 312.210775,108.463865 312.257324,108.850586 C312.303874,109.237307 312.380859,109.620441 312.488281,110 L311.84375,110 C311.750651,109.491534 311.687988,109.11019 311.655762,108.855957 C311.623535,108.601724 311.607422,108.327801 311.607422,108.03418 L311.607422,107.851562 Z M306.923828,109.65625 C308.076829,109.65625 309.052568,109.402021 309.851074,108.893555 C310.649581,108.385089 311.235024,107.658208 311.607422,106.712891 L311.607422,104.102539 L308.320312,104.102539 C307.117181,104.102539 306.102055,104.380043 305.274902,104.935059 C304.44775,105.490074 304.03418,106.175777 304.03418,106.992188 C304.03418,107.77279 304.297361,108.411944 304.82373,108.909668 C305.3501,109.407392 306.050126,109.65625 306.923828,109.65625 L306.923828,109.65625 Z" id="ИТ-Поддержка-Вашего-" sketch:type="MSShapeGroup"></path>
            </g>
        </g>
    </g>
</svg>