<?xml version="1.0" encoding="UTF-8" standalone="no"?>
<svg width="331px" height="173px" viewBox="0 0 331 173" version="1.1" xmlns="http://www.w3.org/2000/svg" xmlns:xlink="http://www.w3.org/1999/xlink" xmlns:sketch="http://www.bohemiancoding.com/sketch/ns">
    <!-- Generator: Sketch 3.2 (9961) - http://www.bohemiancoding.com/sketch -->
    <title>manifold + labs 2 + IT Support For Your </title>
    <desc>Created with Sketch.</desc>
    <defs></defs>
    <g id="Page-1" stroke="none" stroke-width="1" fill="none" fill-rule="evenodd" sketch:type="MSPage">
        <g id="betlabs-2" sketch:type="MSArtboardGroup" transform="translate(-303.000000, -445.000000)" fill="#39A9ED">
            <g id="manifold-+-labs-2-+-IT-Support-For-Your-" sketch:type="MSLayerGroup" transform="translate(313.000000, 474.000000)">
                <g id="manifold-+-labs-2" transform="translate(55.000000, 0.000000)" sketch:type="MSShapeGroup">
                    <g id="manifold">
                        <g id="Page-1">
                            <g id="Artboard-1">
                                <path d="M0.0381654713,57.9943182 L4.67767885,43.7013282 L33.592627,43.7013282 L33.592627,29.9877824 C33.592627,22.5193344 32.9834053,18.0689155 31.7649406,16.6363891 C30.546476,15.2038646 26.7193063,14.4876133 20.2833144,14.4876133 L2.80312689,14.4876133 L7.44264026,0.194621322 L22.2984573,0.194621322 C31.7025018,0.194621322 37.9821856,1.61103033 41.1376947,4.44388989 C43.0122563,6.08566003 44.2463229,8.13784204 44.8399331,10.6004992 C45.4335451,13.0631544 45.7303444,17.336523 45.7303444,23.4207315 L45.7303444,43.7013282 L53.2285485,43.7013282 L48.6358987,57.9943182 L0.0381654713,57.9943182 L0.0381654713,57.9943182 Z" id="ב"></path>
                            </g>
                        </g>
                    </g>
                    <path d="M70.5733333,0.549772727 L70.5733333,57.9943182 L67.5333333,57.9943182 L67.5333333,0.549772727 L70.5733333,0.549772727 Z M107.533333,49.7879545 L107.373333,49.7879545 C106.893331,51.0215971 106.200005,52.1881763 105.293333,53.2877273 C104.386662,54.3872782 103.280007,55.3661321 101.973333,56.2243182 C100.66666,57.0825043 99.1866749,57.7529521 97.5333333,58.2356818 C95.8799917,58.7184115 94.0666765,58.9597727 92.0933333,58.9597727 C87.7199781,58.9597727 84.3333453,58.0077368 81.9333333,56.1036364 C79.5333213,54.1995359 78.3333333,51.2629744 78.3333333,47.2938636 C78.3333333,44.8802152 78.8133285,42.9090986 79.7733333,41.3804545 C80.7333381,39.8518105 81.9466593,38.6450044 83.4133333,37.76 C84.8800073,36.8749956 86.5066577,36.2447746 88.2933333,35.8693182 C90.0800089,35.4938618 91.7999917,35.2256826 93.4533333,35.0647727 L98.1733333,34.6625 C100.360011,34.5015901 102.079994,34.2468199 103.333333,33.8981818 C104.586673,33.5495437 105.53333,33.0668213 106.173333,32.45 C106.813337,31.8331787 107.213333,31.0420503 107.373333,30.0765909 C107.533334,29.1111315 107.613333,27.9043254 107.613333,26.4561364 C107.613333,25.3297671 107.400002,24.2838685 106.973333,23.3184091 C106.546665,22.3529497 105.880005,21.4947765 104.973333,20.7438636 C104.066662,19.9929508 102.893341,19.4029567 101.453333,18.9738636 C100.013326,18.5447706 98.2533437,18.3302273 96.1733333,18.3302273 C92.4933149,18.3302273 89.5200113,19.2420363 87.2533333,21.0656818 C84.9866553,22.8893273 83.7466677,25.6515724 83.5333333,29.3525 L80.4933333,29.3525 C80.7066677,24.7933863 82.1599865,21.3741023 84.8533333,19.0945455 C87.5466801,16.8149886 91.3733085,15.6752273 96.3333333,15.6752273 C101.293358,15.6752273 104.906655,16.6540811 107.173333,18.6118182 C109.440011,20.5695552 110.573333,23.130666 110.573333,26.2952273 L110.573333,50.3511364 C110.573333,50.9411393 110.586667,51.5311334 110.613333,52.1211364 C110.64,52.7111393 110.733333,53.2474976 110.893333,53.7302273 C111.053334,54.212957 111.319998,54.6018167 111.693333,54.8968182 C112.066669,55.1918197 112.599997,55.3393182 113.293333,55.3393182 C113.826669,55.3393182 114.573329,55.2588644 115.533333,55.0979545 L115.533333,57.6725 C114.733329,57.8870465 113.906671,57.9943182 113.053333,57.9943182 C111.826661,57.9943182 110.853337,57.8334107 110.133333,57.5115909 C109.41333,57.1897711 108.866669,56.7606845 108.493333,56.2243182 C108.119998,55.6879519 107.866667,55.0577309 107.733333,54.3336364 C107.599999,53.6095418 107.533333,52.8184134 107.533333,51.9602273 L107.533333,49.7879545 Z M107.533333,34.5015909 C106.786663,35.4134136 105.653341,36.0302257 104.133333,36.3520455 C102.613326,36.6738652 100.920009,36.9152265 99.0533333,37.0761364 L93.9333333,37.5588636 C92.4399925,37.7197735 90.9466741,37.9477258 89.4533333,38.2427273 C87.9599925,38.5377287 86.6133393,39.0338602 85.4133333,39.7311364 C84.2133273,40.4284126 83.2400037,41.3804485 82.4933333,42.5872727 C81.7466629,43.7940969 81.3733333,45.3629449 81.3733333,47.2938636 C81.3733333,50.3511517 82.3333237,52.6172654 84.2533333,54.0922727 C86.1733429,55.5672801 88.8133165,56.3047727 92.1733333,56.3047727 C95.6400173,56.3047727 98.3866565,55.6745518 100.413333,54.4140909 C102.44001,53.1536301 103.986661,51.7054627 105.053333,50.0695455 C106.120005,48.4336282 106.799999,46.8513713 107.093333,45.3227273 C107.386668,43.7940833 107.533333,42.7615936 107.533333,42.2252273 L107.533333,34.5015909 Z M120.973333,0.549772727 L124.013333,0.549772727 L124.013333,25.4102273 L124.173333,25.4102273 C124.760003,23.8011283 125.586661,22.3931879 126.653333,21.1863636 C127.720005,19.9795394 128.94666,18.9604587 130.333333,18.1290909 C131.720007,17.2977231 133.213325,16.6809111 134.813333,16.2786364 C136.413341,15.8763616 138.066658,15.6752273 139.773333,15.6752273 C142.813349,15.6752273 145.439989,16.2115855 147.653333,17.2843182 C149.866678,18.3570508 151.719993,19.8320361 153.213333,21.7093182 C154.706674,23.5866003 155.81333,25.7722603 156.533333,28.2663636 C157.253337,30.760467 157.613333,33.4556673 157.613333,36.3520455 C157.613333,41.2866156 156.946673,45.2422578 155.613333,48.2190909 C154.279993,51.195924 152.680009,53.4754466 150.813333,55.0577273 C148.946657,56.6400079 147.00001,57.6859065 144.973333,58.1954545 C142.946657,58.7050025 141.213341,58.9597727 139.773333,58.9597727 C137.05332,58.9597727 134.746676,58.5306861 132.853333,57.6725 C130.959991,56.8143139 129.400006,55.8086421 128.173333,54.6554545 C126.946661,53.502267 126.013337,52.3625056 125.373333,51.2361364 C124.73333,50.1097671 124.333334,49.2784118 124.173333,48.7420455 L124.013333,48.7420455 L124.013333,57.9943182 L120.973333,57.9943182 L120.973333,0.549772727 Z M139.773333,56.3047727 C142.493347,56.3047727 144.786657,55.7147786 146.653333,54.5347727 C148.520009,53.3547668 150.039994,51.8127368 151.213333,49.9086364 C152.386673,48.0045359 153.239997,45.8591028 153.773333,43.4722727 C154.306669,41.0854426 154.573333,38.7120573 154.573333,36.3520455 C154.573333,34.0456703 154.26667,31.8197835 153.653333,29.6743182 C153.039997,27.5288529 152.106673,25.6113721 150.853333,23.9218182 C149.599994,22.2322643 148.053343,20.8779596 146.213333,19.8588636 C144.373324,18.8397676 142.226679,18.3302273 139.773333,18.3302273 C137.106653,18.3302273 134.786677,18.7861318 132.813333,19.6979545 C130.83999,20.6097773 129.21334,21.8702192 127.933333,23.4793182 C126.653327,25.0884171 125.693337,26.992489 125.053333,29.1915909 C124.41333,31.3906928 124.093333,33.7774871 124.093333,36.3520455 C124.093333,38.8729671 124.386664,41.3402152 124.973333,43.7538636 C125.560003,46.1675121 126.479994,48.2995362 127.733333,50.15 C128.986673,52.0004638 130.59999,53.488858 132.573333,54.6152273 C134.546677,55.7415965 136.946653,56.3047727 139.773333,56.3047727 L139.773333,56.3047727 Z M166.173333,44.2365909 C166.280001,46.1675097 166.706663,47.8704472 167.453333,49.3454545 C168.200004,50.8204619 169.173327,52.0809039 170.373333,53.1268182 C171.573339,54.1727325 172.973325,54.963861 174.573333,55.5002273 C176.173341,56.0365936 177.906657,56.3047727 179.773333,56.3047727 C181.106673,56.3047727 182.533326,56.1840921 184.053333,55.9427273 C185.573341,55.7013624 186.98666,55.2588669 188.293333,54.6152273 C189.600007,53.9715877 190.679996,53.0731876 191.533333,51.92 C192.386671,50.7668124 192.813333,49.3052361 192.813333,47.5352273 C192.813333,45.2288521 192.120007,43.4856877 190.733333,42.3056818 C189.34666,41.1256759 187.600011,40.2138669 185.493333,39.5702273 C183.386656,38.9265877 181.120012,38.4036384 178.693333,38.0013636 C176.266655,37.5990889 174.000011,36.9956858 171.893333,36.1911364 C169.786656,35.3865869 168.040007,34.2468256 166.653333,32.7718182 C165.26666,31.2968108 164.573333,29.1379688 164.573333,26.2952273 C164.573333,24.2570353 165.026662,22.5540977 165.933333,21.1863636 C166.840005,19.8186295 167.999993,18.732504 169.413333,17.9279545 C170.826674,17.1234051 172.413325,16.5468199 174.173333,16.1981818 C175.933342,15.8495437 177.693325,15.6752273 179.453333,15.6752273 C181.586677,15.6752273 183.586657,15.9165885 185.453333,16.3993182 C187.320009,16.8820479 188.933327,17.6597674 190.293333,18.7325 C191.65334,19.8052326 192.719996,21.1729462 193.493333,22.8356818 C194.266671,24.4984174 194.653333,26.5097609 194.653333,28.8697727 L191.613333,28.8697727 C191.613333,26.9924906 191.30667,25.3834158 190.693333,24.0425 C190.079997,22.7015842 189.226672,21.6154587 188.133333,20.7840909 C187.039995,19.9527231 185.746674,19.3359111 184.253333,18.9336364 C182.759993,18.5313616 181.160009,18.3302273 179.453333,18.3302273 C178.06666,18.3302273 176.666674,18.4643168 175.253333,18.7325 C173.839993,19.0006832 172.573339,19.4565877 171.453333,20.1002273 C170.333328,20.7438669 169.413337,21.5752222 168.693333,22.5943182 C167.97333,23.6134142 167.613333,24.8470382 167.613333,26.2952273 C167.613333,27.9579629 168.013329,29.2988585 168.813333,30.3179545 C169.613337,31.3370506 170.66666,32.1549969 171.973333,32.7718182 C173.280007,33.3886394 174.746659,33.8847708 176.373333,34.2602273 C178.000008,34.6356837 179.639992,35.0111345 181.293333,35.3865909 C183.32001,35.7620473 185.226658,36.2045429 187.013333,36.7140909 C188.800009,37.2236389 190.34666,37.9209047 191.653333,38.8059091 C192.960007,39.6909135 193.986663,40.8306748 194.733333,42.2252273 C195.480004,43.6197797 195.853333,45.389762 195.853333,47.5352273 C195.853333,49.7879658 195.346672,51.6384019 194.333333,53.0865909 C193.319995,54.53478 192.040008,55.7013592 190.493333,56.5863636 C188.946659,57.4713681 187.226676,58.0881801 185.333333,58.4368182 C183.439991,58.7854563 181.586676,58.9597727 179.773333,58.9597727 C177.426655,58.9597727 175.253343,58.6513667 173.253333,58.0345455 C171.253323,57.4177242 169.506674,56.4790972 168.013333,55.2186364 C166.519993,53.9581755 165.346671,52.4161455 164.493333,50.5925 C163.639996,48.7688545 163.186667,46.6502393 163.133333,44.2365909 L166.173333,44.2365909 Z" id="labs"></path>
                </g>
                <path d="M0.35,91.15 L0.35,109 L0.85,109 L0.85,91.15 L0.35,91.15 Z M2.57272731,91.65 L8.97272731,91.65 L8.97272731,109 L9.47272731,109 L9.47272731,91.65 L15.8977273,91.65 L15.8977273,91.15 L2.57272731,91.15 L2.57272731,91.65 Z M37.2431819,96.15 L37.7431819,96.15 C37.6931817,95.149995 37.5015169,94.3041701 37.1681819,93.6125 C36.8348469,92.9208299 36.3890181,92.3625021 35.8306819,91.9375 C35.2723458,91.5124979 34.6223523,91.2041676 33.8806819,91.0125 C33.1390116,90.8208324 32.3265197,90.725 31.4431819,90.725 C30.7265117,90.725 30.0056856,90.7999993 29.2806819,90.95 C28.5556783,91.1000008 27.9015182,91.3499983 27.3181819,91.7 C26.7348457,92.0500018 26.2598504,92.5208304 25.8931819,93.1125 C25.5265134,93.7041696 25.3431819,94.4416623 25.3431819,95.325 C25.3431819,96.191671 25.5181802,96.8958306 25.8681819,97.4375 C26.2181837,97.9791694 26.6806791,98.4124984 27.2556819,98.7375 C27.8306848,99.0625016 28.4765117,99.3166658 29.1931819,99.5 C29.9098522,99.6833343 30.6265117,99.8583325 31.3431819,100.025 C32.0265187,100.191668 32.7390116,100.354166 33.4806819,100.5125 C34.2223523,100.670834 34.8973456,100.904165 35.5056819,101.2125 C36.1140183,101.520835 36.6140133,101.937497 37.0056819,102.4625 C37.3973506,102.987503 37.5931819,103.699996 37.5931819,104.6 C37.5931819,105.366671 37.4223503,106.024997 37.0806819,106.575 C36.7390136,107.125003 36.2931847,107.574998 35.7431819,107.925 C35.1931792,108.275002 34.5723521,108.529166 33.8806819,108.6875 C33.1890118,108.845834 32.4931854,108.925 31.7931819,108.925 C30.8431772,108.925 29.9723526,108.820834 29.1806819,108.6125 C28.3890113,108.404166 27.7056848,108.066669 27.1306819,107.6 C26.5556791,107.133331 26.1098502,106.52917 25.7931819,105.7875 C25.4765137,105.04583 25.3181819,104.141672 25.3181819,103.075 L24.8181819,103.075 C24.8015152,104.208339 24.9640136,105.174996 25.3056819,105.975 C25.6473503,106.775004 26.1306788,107.429164 26.7556819,107.9375 C27.3806851,108.445836 28.1223443,108.816666 28.9806819,109.05 C29.8390196,109.283335 30.7765102,109.4 31.7931819,109.4 C32.5598524,109.4 33.3181782,109.312501 34.0681819,109.1375 C34.8181857,108.962499 35.4931789,108.679169 36.0931819,108.2875 C36.6931849,107.895831 37.1765134,107.400003 37.5431819,106.8 C37.9098504,106.199997 38.0931819,105.475004 38.0931819,104.625 C38.0931819,103.691662 37.9306836,102.950003 37.6056819,102.4 C37.2806803,101.849997 36.8431847,101.408335 36.2931819,101.075 C35.7431792,100.741665 35.0973523,100.475001 34.3556819,100.275 C33.6140116,100.074999 32.8265194,99.8666678 31.9931819,99.65 C31.2265114,99.4666658 30.4765189,99.2916675 29.7431819,99.125 C29.0098449,98.9583325 28.3556848,98.7250015 27.7806819,98.425 C27.2056791,98.1249985 26.7390171,97.7333358 26.3806819,97.25 C26.0223468,96.7666643 25.8431819,96.125004 25.8431819,95.325 C25.8431819,94.524996 26.0181802,93.8625026 26.3681819,93.3375 C26.7181837,92.8124974 27.1640126,92.3916683 27.7056819,92.075 C28.2473513,91.7583318 28.8515119,91.5375006 29.5181819,91.4125 C30.1848519,91.2874994 30.8265122,91.225 31.4431819,91.225 C32.2431859,91.225 32.9931784,91.3083325 33.6931819,91.475 C34.3931854,91.6416675 34.9973461,91.9208314 35.5056819,92.3125 C36.0140178,92.7041686 36.4223471,93.2124969 36.7306819,93.8375 C37.0390168,94.4625031 37.2098484,95.2333288 37.2431819,96.15 L37.2431819,96.15 Z M51.1409092,109 L51.1409092,96.15 L50.6409092,96.15 L50.6409092,103.425 C50.6409092,104.14167 50.5409102,104.824997 50.3409092,105.475 C50.1409082,106.125003 49.8450779,106.695831 49.4534092,107.1875 C49.0617406,107.679169 48.5742455,108.070832 47.9909092,108.3625 C47.407573,108.654168 46.7325797,108.8 45.9659092,108.8 C45.4159065,108.8 44.8950784,108.720834 44.4034092,108.5625 C43.9117401,108.404166 43.4784111,108.154168 43.1034092,107.8125 C42.7284074,107.470832 42.432577,107.037503 42.2159092,106.5125 C41.9992415,105.987497 41.8909092,105.350004 41.8909092,104.6 L41.8909092,96.15 L41.3909092,96.15 L41.3909092,104.675 C41.3909092,105.425004 41.5034081,106.087497 41.7284092,106.6625 C41.9534104,107.237503 42.2700739,107.720831 42.6784092,108.1125 C43.0867446,108.504169 43.5700731,108.795832 44.1284092,108.9875 C44.6867454,109.179168 45.2992392,109.275 45.9659092,109.275 C47.2325822,109.275 48.2617386,108.950003 49.0534092,108.3 C49.8450799,107.649997 50.3575747,106.825005 50.5909092,105.825 L50.6409092,105.825 L50.6409092,109 L51.1409092,109 Z M55.1636366,113.4 L55.1636366,105.4 L55.2136366,105.4 C55.5136381,106.566673 56.1052988,107.504163 56.9886366,108.2125 C57.8719743,108.920837 58.9969631,109.275 60.3636366,109.275 C61.2469743,109.275 62.0302998,109.095835 62.7136366,108.7375 C63.3969733,108.379165 63.9678009,107.89167 64.4261366,107.275 C64.8844722,106.65833 65.2344687,105.941671 65.4761366,105.125 C65.7178044,104.308329 65.8386366,103.450005 65.8386366,102.55 C65.8386366,101.583329 65.7136378,100.691671 65.4636366,99.875 C65.2136353,99.0583293 64.8511389,98.350003 64.3761366,97.75 C63.9011342,97.149997 63.3261399,96.683335 62.6511366,96.35 C61.9761332,96.016665 61.2136408,95.85 60.3636366,95.85 C59.7136333,95.85 59.1094727,95.9458324 58.5511366,96.1375 C57.9928004,96.3291676 57.4969721,96.5999983 57.0636366,96.95 C56.6303011,97.3000018 56.2553048,97.7124976 55.9386366,98.1875 C55.6219683,98.6625024 55.3803041,99.1833305 55.2136366,99.75 L55.1636366,99.75 L55.1636366,96.15 L54.6636366,96.15 L54.6636366,113.4 L55.1636366,113.4 Z M60.3636366,108.8 C58.7969621,108.8 57.5386413,108.262505 56.5886366,107.1875 C55.6386318,106.112495 55.1636366,104.566677 55.1636366,102.55 C55.1636366,101.716663 55.2803021,100.925004 55.5136366,100.175 C55.7469711,99.4249963 56.0844677,98.7666695 56.5261366,98.2 C56.9678054,97.6333305 57.5136333,97.183335 58.1636366,96.85 C58.8136398,96.516665 59.5469658,96.35 60.3636366,96.35 C61.1969741,96.35 61.9261334,96.516665 62.5511366,96.85 C63.1761397,97.183335 63.6928012,97.6374971 64.1011366,98.2125 C64.5094719,98.7875029 64.8178022,99.4458296 65.0261366,100.1875 C65.2344709,100.92917 65.3386366,101.716663 65.3386366,102.55 C65.3386366,103.300004 65.2428042,104.04583 65.0511366,104.7875 C64.8594689,105.52917 64.5636386,106.19583 64.1636366,106.7875 C63.7636346,107.37917 63.2511397,107.862498 62.6261366,108.2375 C62.0011334,108.612502 61.2469743,108.8 60.3636366,108.8 L60.3636366,108.8 Z M69.3613639,113.4 L69.3613639,105.4 L69.4113639,105.4 C69.7113654,106.566673 70.3030261,107.504163 71.1863639,108.2125 C72.0697016,108.920837 73.1946904,109.275 74.5613639,109.275 C75.4447016,109.275 76.2280271,109.095835 76.9113639,108.7375 C77.5947006,108.379165 78.1655282,107.89167 78.6238639,107.275 C79.0821995,106.65833 79.432196,105.941671 79.6738639,105.125 C79.9155317,104.308329 80.0363639,103.450005 80.0363639,102.55 C80.0363639,101.583329 79.9113651,100.691671 79.6613639,99.875 C79.4113626,99.0583293 79.0488662,98.350003 78.5738639,97.75 C78.0988615,97.149997 77.5238672,96.683335 76.8488639,96.35 C76.1738605,96.016665 75.4113681,95.85 74.5613639,95.85 C73.9113606,95.85 73.3072,95.9458324 72.7488639,96.1375 C72.1905277,96.3291676 71.6946994,96.5999983 71.2613639,96.95 C70.8280284,97.3000018 70.4530321,97.7124976 70.1363639,98.1875 C69.8196956,98.6625024 69.5780314,99.1833305 69.4113639,99.75 L69.3613639,99.75 L69.3613639,96.15 L68.8613639,96.15 L68.8613639,113.4 L69.3613639,113.4 Z M74.5613639,108.8 C72.9946894,108.8 71.7363686,108.262505 70.7863639,107.1875 C69.8363591,106.112495 69.3613639,104.566677 69.3613639,102.55 C69.3613639,101.716663 69.4780294,100.925004 69.7113639,100.175 C69.9446984,99.4249963 70.282195,98.7666695 70.7238639,98.2 C71.1655327,97.6333305 71.7113606,97.183335 72.3613639,96.85 C73.0113671,96.516665 73.7446931,96.35 74.5613639,96.35 C75.3947014,96.35 76.1238607,96.516665 76.7488639,96.85 C77.373867,97.183335 77.8905285,97.6374971 78.2988639,98.2125 C78.7071992,98.7875029 79.0155295,99.4458296 79.2238639,100.1875 C79.4321982,100.92917 79.5363639,101.716663 79.5363639,102.55 C79.5363639,103.300004 79.4405315,104.04583 79.2488639,104.7875 C79.0571962,105.52917 78.7613659,106.19583 78.3613639,106.7875 C77.9613619,107.37917 77.448867,107.862498 76.8238639,108.2375 C76.1988607,108.612502 75.4447016,108.8 74.5613639,108.8 L74.5613639,108.8 Z M82.8840912,102.575 C82.8840912,101.774996 82.99659,101.000004 83.2215912,100.25 C83.4465923,99.4999963 83.7840889,98.8375029 84.2340912,98.2625 C84.6840934,97.6874971 85.2382545,97.2250018 85.8965912,96.875 C86.5549278,96.5249983 87.3174202,96.35 88.1840912,96.35 C89.0340954,96.35 89.7882545,96.5249983 90.4465912,96.875 C91.1049278,97.2250018 91.6590889,97.6874971 92.1090912,98.2625 C92.5590934,98.8375029 92.89659,99.4999963 93.1215912,100.25 C93.3465923,101.000004 93.4590912,101.774996 93.4590912,102.575 C93.4590912,103.391671 93.3465923,104.174996 93.1215912,104.925 C92.89659,105.675004 92.5590934,106.337497 92.1090912,106.9125 C91.6590889,107.487503 91.1049278,107.945832 90.4465912,108.2875 C89.7882545,108.629168 89.0340954,108.8 88.1840912,108.8 C87.3174202,108.8 86.5549278,108.629168 85.8965912,108.2875 C85.2382545,107.945832 84.6840934,107.487503 84.2340912,106.9125 C83.7840889,106.337497 83.4465923,105.675004 83.2215912,104.925 C82.99659,104.174996 82.8840912,103.391671 82.8840912,102.575 L82.8840912,102.575 Z M82.3840912,102.575 C82.3840912,103.458338 82.5090899,104.304163 82.7590912,105.1125 C83.0090924,105.920837 83.379922,106.63333 83.8715912,107.25 C84.3632603,107.86667 84.9674209,108.358332 85.6840912,108.725 C86.4007614,109.091669 87.2257532,109.275 88.1590912,109.275 C89.1090959,109.275 89.9424209,109.091669 90.6590912,108.725 C91.3757614,108.358332 91.979922,107.86667 92.4715912,107.25 C92.9632603,106.63333 93.3340899,105.920837 93.5840912,105.1125 C93.8340924,104.304163 93.9590912,103.458338 93.9590912,102.575 C93.9590912,101.691662 93.8340924,100.845837 93.5840912,100.0375 C93.3340899,99.2291626 92.9632603,98.5166698 92.4715912,97.9 C91.979922,97.2833303 91.3757614,96.7875019 90.6590912,96.4125 C89.9424209,96.0374981 89.1174292,95.85 88.1840912,95.85 C87.2340864,95.85 86.4007614,96.0374981 85.6840912,96.4125 C84.9674209,96.7875019 84.3632603,97.2833303 83.8715912,97.9 C83.379922,98.5166698 83.0090924,99.2291626 82.7590912,100.0375 C82.5090899,100.845837 82.3840912,101.691662 82.3840912,102.575 L82.3840912,102.575 Z M97.3068185,109 L97.3068185,101.725 C97.3068185,101.024997 97.4068175,100.34167 97.6068185,99.675 C97.8068195,99.00833 98.1151497,98.4208359 98.5318185,97.9125 C98.9484872,97.4041641 99.4776486,97.0041681 100.119318,96.7125 C100.760988,96.4208319 101.523481,96.2999998 102.406818,96.35 L102.406818,95.85 C101.640148,95.8333333 100.969321,95.9166658 100.394318,96.1 C99.8193156,96.2833343 99.3234872,96.5333318 98.9068185,96.85 C98.4901497,97.1666683 98.1568197,97.5374979 97.9068185,97.9625 C97.6568172,98.3875021 97.4734857,98.8416643 97.3568185,99.325 L97.3068185,99.325 L97.3068185,96.15 L96.8068185,96.15 L96.8068185,109 L97.3068185,109 Z M105.429546,96.65 L108.329546,96.65 L108.329546,96.15 L105.429546,96.15 L105.429546,92.1 L104.929546,92.1 L104.929546,96.15 L102.579546,96.15 L102.579546,96.65 L104.929546,96.65 L104.929546,106.6 C104.929546,107.516671 105.13371,108.145832 105.542046,108.4875 C105.950381,108.829168 106.44621,109 107.029546,109 C107.412881,109 107.675378,108.991667 107.817046,108.975 C107.958713,108.958333 108.104545,108.941667 108.254546,108.925 L108.254546,108.425 C108.171212,108.458334 108.029547,108.479167 107.829546,108.4875 C107.629545,108.495833 107.404547,108.5 107.154546,108.5 C106.954545,108.5 106.754547,108.4875 106.554546,108.4625 C106.354545,108.4375 106.171213,108.358334 106.004546,108.225 C105.837878,108.091666 105.70038,107.891668 105.592046,107.625 C105.483712,107.358332 105.429546,106.983336 105.429546,106.5 L105.429546,96.65 Z M119.05,99.45 L119.05,91.65 L129.55,91.65 L129.55,91.15 L118.55,91.15 L118.55,109 L119.05,109 L119.05,99.95 L128.55,99.95 L128.55,99.45 L119.05,99.45 Z M131.197728,102.575 C131.197728,101.774996 131.310227,101.000004 131.535228,100.25 C131.760229,99.4999963 132.097725,98.8375029 132.547728,98.2625 C132.99773,97.6874971 133.551891,97.2250018 134.210228,96.875 C134.868564,96.5249983 135.631057,96.35 136.497728,96.35 C137.347732,96.35 138.101891,96.5249983 138.760228,96.875 C139.418564,97.2250018 139.972725,97.6874971 140.422728,98.2625 C140.87273,98.8375029 141.210227,99.4999963 141.435228,100.25 C141.660229,101.000004 141.772728,101.774996 141.772728,102.575 C141.772728,103.391671 141.660229,104.174996 141.435228,104.925 C141.210227,105.675004 140.87273,106.337497 140.422728,106.9125 C139.972725,107.487503 139.418564,107.945832 138.760228,108.2875 C138.101891,108.629168 137.347732,108.8 136.497728,108.8 C135.631057,108.8 134.868564,108.629168 134.210228,108.2875 C133.551891,107.945832 132.99773,107.487503 132.547728,106.9125 C132.097725,106.337497 131.760229,105.675004 131.535228,104.925 C131.310227,104.174996 131.197728,103.391671 131.197728,102.575 L131.197728,102.575 Z M130.697728,102.575 C130.697728,103.458338 130.822726,104.304163 131.072728,105.1125 C131.322729,105.920837 131.693559,106.63333 132.185228,107.25 C132.676897,107.86667 133.281057,108.358332 133.997728,108.725 C134.714398,109.091669 135.53939,109.275 136.472728,109.275 C137.422732,109.275 138.256057,109.091669 138.972728,108.725 C139.689398,108.358332 140.293559,107.86667 140.785228,107.25 C141.276897,106.63333 141.647726,105.920837 141.897728,105.1125 C142.147729,104.304163 142.272728,103.458338 142.272728,102.575 C142.272728,101.691662 142.147729,100.845837 141.897728,100.0375 C141.647726,99.2291626 141.276897,98.5166698 140.785228,97.9 C140.293559,97.2833303 139.689398,96.7875019 138.972728,96.4125 C138.256057,96.0374981 137.431066,95.85 136.497728,95.85 C135.547723,95.85 134.714398,96.0374981 133.997728,96.4125 C133.281057,96.7875019 132.676897,97.2833303 132.185228,97.9 C131.693559,98.5166698 131.322729,99.2291626 131.072728,100.0375 C130.822726,100.845837 130.697728,101.691662 130.697728,102.575 L130.697728,102.575 Z M145.620455,109 L145.620455,101.725 C145.620455,101.024997 145.720454,100.34167 145.920455,99.675 C146.120456,99.00833 146.428786,98.4208359 146.845455,97.9125 C147.262124,97.4041641 147.791285,97.0041681 148.432955,96.7125 C149.074625,96.4208319 149.837117,96.2999998 150.720455,96.35 L150.720455,95.85 C149.953785,95.8333333 149.282958,95.9166658 148.707955,96.1 C148.132952,96.2833343 147.637124,96.5333318 147.220455,96.85 C146.803786,97.1666683 146.470456,97.5374979 146.220455,97.9625 C145.970454,98.3875021 145.787122,98.8416643 145.670455,99.325 L145.620455,99.325 L145.620455,96.15 L145.120455,96.15 L145.120455,109 L145.620455,109 Z M172.31591,91.15 L165.44091,100.95 L158.61591,91.15 L157.99091,91.15 L165.19091,101.475 L165.19091,109 L165.69091,109 L165.69091,101.475 L172.91591,91.15 L172.31591,91.15 Z M172.288637,102.575 C172.288637,101.774996 172.401136,101.000004 172.626137,100.25 C172.851138,99.4999963 173.188635,98.8375029 173.638637,98.2625 C174.088639,97.6874971 174.6428,97.2250018 175.301137,96.875 C175.959474,96.5249983 176.721966,96.35 177.588637,96.35 C178.438641,96.35 179.1928,96.5249983 179.851137,96.875 C180.509474,97.2250018 181.063635,97.6874971 181.513637,98.2625 C181.963639,98.8375029 182.301136,99.4999963 182.526137,100.25 C182.751138,101.000004 182.863637,101.774996 182.863637,102.575 C182.863637,103.391671 182.751138,104.174996 182.526137,104.925 C182.301136,105.675004 181.963639,106.337497 181.513637,106.9125 C181.063635,107.487503 180.509474,107.945832 179.851137,108.2875 C179.1928,108.629168 178.438641,108.8 177.588637,108.8 C176.721966,108.8 175.959474,108.629168 175.301137,108.2875 C174.6428,107.945832 174.088639,107.487503 173.638637,106.9125 C173.188635,106.337497 172.851138,105.675004 172.626137,104.925 C172.401136,104.174996 172.288637,103.391671 172.288637,102.575 L172.288637,102.575 Z M171.788637,102.575 C171.788637,103.458338 171.913636,104.304163 172.163637,105.1125 C172.413638,105.920837 172.784468,106.63333 173.276137,107.25 C173.767806,107.86667 174.371967,108.358332 175.088637,108.725 C175.805307,109.091669 176.630299,109.275 177.563637,109.275 C178.513642,109.275 179.346967,109.091669 180.063637,108.725 C180.780307,108.358332 181.384468,107.86667 181.876137,107.25 C182.367806,106.63333 182.738636,105.920837 182.988637,105.1125 C183.238638,104.304163 183.363637,103.458338 183.363637,102.575 C183.363637,101.691662 183.238638,100.845837 182.988637,100.0375 C182.738636,99.2291626 182.367806,98.5166698 181.876137,97.9 C181.384468,97.2833303 180.780307,96.7875019 180.063637,96.4125 C179.346967,96.0374981 178.521975,95.85 177.588637,95.85 C176.638632,95.85 175.805307,96.0374981 175.088637,96.4125 C174.371967,96.7875019 173.767806,97.2833303 173.276137,97.9 C172.784468,98.5166698 172.413638,99.2291626 172.163637,100.0375 C171.913636,100.845837 171.788637,101.691662 171.788637,102.575 L171.788637,102.575 Z M195.961364,109 L195.961364,96.15 L195.461364,96.15 L195.461364,103.425 C195.461364,104.14167 195.361365,104.824997 195.161364,105.475 C194.961363,106.125003 194.665533,106.695831 194.273864,107.1875 C193.882196,107.679169 193.394701,108.070832 192.811364,108.3625 C192.228028,108.654168 191.553035,108.8 190.786364,108.8 C190.236362,108.8 189.715533,108.720834 189.223864,108.5625 C188.732195,108.404166 188.298866,108.154168 187.923864,107.8125 C187.548862,107.470832 187.253032,107.037503 187.036364,106.5125 C186.819697,105.987497 186.711364,105.350004 186.711364,104.6 L186.711364,96.15 L186.211364,96.15 L186.211364,104.675 C186.211364,105.425004 186.323863,106.087497 186.548864,106.6625 C186.773865,107.237503 187.090529,107.720831 187.498864,108.1125 C187.9072,108.504169 188.390528,108.795832 188.948864,108.9875 C189.5072,109.179168 190.119694,109.275 190.786364,109.275 C192.053037,109.275 193.082194,108.950003 193.873864,108.3 C194.665535,107.649997 195.17803,106.825005 195.411364,105.825 L195.461364,105.825 L195.461364,109 L195.961364,109 Z M199.984092,109 L199.984092,101.725 C199.984092,101.024997 200.084091,100.34167 200.284092,99.675 C200.484093,99.00833 200.792423,98.4208359 201.209092,97.9125 C201.62576,97.4041641 202.154922,97.0041681 202.796592,96.7125 C203.438261,96.4208319 204.200754,96.2999998 205.084092,96.35 L205.084092,95.85 C204.317421,95.8333333 203.646594,95.9166658 203.071592,96.1 C202.496589,96.2833343 202.00076,96.5333318 201.584092,96.85 C201.167423,97.1666683 200.834093,97.5374979 200.584092,97.9625 C200.33409,98.3875021 200.150759,98.8416643 200.034092,99.325 L199.984092,99.325 L199.984092,96.15 L199.484092,96.15 L199.484092,109 L199.984092,109 Z M214.754546,99.45 L214.754546,91.65 L221.929546,91.65 C222.562883,91.65 223.154543,91.7291659 223.704546,91.8875 C224.254549,92.0458341 224.733711,92.2874984 225.142046,92.6125 C225.550382,92.9375016 225.871212,93.3458309 226.104546,93.8375 C226.337881,94.3291691 226.454546,94.9166633 226.454546,95.6 C226.454546,96.2333365 226.329547,96.7916643 226.079546,97.275 C225.829545,97.7583358 225.496215,98.1624984 225.079546,98.4875 C224.662877,98.8125016 224.183716,99.0541659 223.642046,99.2125 C223.100377,99.3708341 222.529549,99.45 221.929546,99.45 L214.754546,99.45 Z M214.254546,91.15 L214.254546,109 L221.629546,109 C222.47955,109 223.267043,108.895834 223.992046,108.6875 C224.71705,108.479166 225.337877,108.175002 225.854546,107.775 C226.371215,107.374998 226.775378,106.870836 227.067046,106.2625 C227.358714,105.654164 227.504546,104.950004 227.504546,104.15 C227.504546,103.466663 227.387881,102.854169 227.154546,102.3125 C226.921212,101.770831 226.608715,101.312502 226.217046,100.9375 C225.825378,100.562498 225.367049,100.270834 224.842046,100.0625 C224.317044,99.8541656 223.762882,99.7416668 223.179546,99.725 L223.179546,99.675 C223.729549,99.6416665 224.233711,99.5125011 224.692046,99.2875 C225.150382,99.0624989 225.546211,98.7666685 225.879546,98.4 C226.212881,98.0333315 226.475379,97.6083358 226.667046,97.125 C226.858714,96.6416643 226.954546,96.133336 226.954546,95.6 C226.954546,94.8499963 226.825381,94.2000028 226.567046,93.65 C226.308712,93.0999973 225.950382,92.6375019 225.492046,92.2625 C225.033711,91.8874981 224.500383,91.6083343 223.892046,91.425 C223.28371,91.2416658 222.62955,91.15 221.929546,91.15 L214.254546,91.15 Z M214.754546,108.5 L214.754546,99.95 L221.929546,99.95 C222.562883,99.95 223.18371,100.024999 223.792046,100.175 C224.400383,100.325001 224.942044,100.566665 225.417046,100.9 C225.892049,101.233335 226.275378,101.666664 226.567046,102.2 C226.858714,102.733336 227.004546,103.391663 227.004546,104.175 C227.004546,104.908337 226.871214,105.545831 226.604546,106.0875 C226.337878,106.629169 225.975382,107.079165 225.517046,107.4375 C225.058711,107.795835 224.517049,108.062499 223.892046,108.2375 C223.267043,108.412501 222.587883,108.5 221.854546,108.5 L214.754546,108.5 Z M240.252274,109 L240.252274,96.15 L239.752274,96.15 L239.752274,103.425 C239.752274,104.14167 239.652275,104.824997 239.452274,105.475 C239.252273,106.125003 238.956442,106.695831 238.564774,107.1875 C238.173105,107.679169 237.68561,108.070832 237.102274,108.3625 C236.518937,108.654168 235.843944,108.8 235.077274,108.8 C234.527271,108.8 234.006443,108.720834 233.514774,108.5625 C233.023104,108.404166 232.589775,108.154168 232.214774,107.8125 C231.839772,107.470832 231.543941,107.037503 231.327274,106.5125 C231.110606,105.987497 231.002274,105.350004 231.002274,104.6 L231.002274,96.15 L230.502274,96.15 L230.502274,104.675 C230.502274,105.425004 230.614772,106.087497 230.839774,106.6625 C231.064775,107.237503 231.381438,107.720831 231.789774,108.1125 C232.198109,108.504169 232.681437,108.795832 233.239774,108.9875 C233.79811,109.179168 234.410604,109.275 235.077274,109.275 C236.343947,109.275 237.373103,108.950003 238.164774,108.3 C238.956444,107.649997 239.468939,106.825005 239.702274,105.825 L239.752274,105.825 L239.752274,109 L240.252274,109 Z M252.150001,99.95 L252.650001,99.95 C252.650001,98.5166595 252.233338,97.4750033 251.400001,96.825 C250.566663,96.1749968 249.433341,95.85 248.000001,95.85 C247.199997,95.85 246.525004,95.949999 245.975001,96.15 C245.424998,96.350001 244.975003,96.6083318 244.625001,96.925 C244.274999,97.2416683 244.025002,97.5916648 243.875001,97.975 C243.725,98.3583353 243.650001,98.7249983 243.650001,99.075 C243.650001,99.7750035 243.775,100.333331 244.025001,100.75 C244.275002,101.166669 244.666665,101.491666 245.200001,101.725 C245.566669,101.891668 245.983332,102.041666 246.450001,102.175 C246.91667,102.308334 247.458331,102.449999 248.075001,102.6 C248.625004,102.733334 249.166665,102.866666 249.700001,103 C250.233337,103.133334 250.704165,103.312499 251.112501,103.5375 C251.520836,103.762501 251.854166,104.049998 252.112501,104.4 C252.370835,104.750002 252.500001,105.208331 252.500001,105.775 C252.500001,106.325003 252.370835,106.791665 252.112501,107.175 C251.854166,107.558335 251.525003,107.870832 251.125001,108.1125 C250.724999,108.354168 250.27917,108.529166 249.787501,108.6375 C249.295832,108.745834 248.81667,108.8 248.350001,108.8 C246.833327,108.8 245.670838,108.462503 244.862501,107.7875 C244.054163,107.112497 243.650001,106.050007 243.650001,104.6 L243.150001,104.6 C243.150001,106.216675 243.587496,107.399996 244.462501,108.15 C245.337505,108.900004 246.633326,109.275 248.350001,109.275 C248.900004,109.275 249.454165,109.212501 250.012501,109.0875 C250.570837,108.962499 251.070832,108.758335 251.512501,108.475 C251.95417,108.191665 252.312499,107.825002 252.587501,107.375 C252.862502,106.924998 253.000001,106.375003 253.000001,105.725 C253.000001,105.10833 252.879169,104.608335 252.637501,104.225 C252.395833,103.841665 252.079169,103.525001 251.687501,103.275 C251.295832,103.024999 250.85417,102.829167 250.362501,102.6875 C249.870832,102.545833 249.375003,102.408334 248.875001,102.275 C248.174997,102.091666 247.562503,101.933334 247.037501,101.8 C246.512498,101.666666 246.025003,101.508334 245.575001,101.325 C245.141665,101.141666 244.795835,100.879168 244.537501,100.5375 C244.279166,100.195832 244.150001,99.7083365 244.150001,99.075 C244.150001,98.9583328 244.183334,98.7500015 244.250001,98.45 C244.316668,98.1499985 244.475,97.8458349 244.725001,97.5375 C244.975002,97.2291651 245.358332,96.9541679 245.875001,96.7125 C246.39167,96.4708321 247.099996,96.35 248.000001,96.35 C248.616671,96.35 249.179165,96.416666 249.687501,96.55 C250.195837,96.683334 250.633332,96.8958319 251.000001,97.1875 C251.366669,97.4791681 251.65,97.8499978 251.850001,98.3 C252.050002,98.7500023 252.150001,99.2999968 252.150001,99.95 L252.150001,99.95 Z M256.622728,93.675 L256.622728,91.15 L256.122728,91.15 L256.122728,93.675 L256.622728,93.675 Z M256.622728,109 L256.622728,96.15 L256.122728,96.15 L256.122728,109 L256.622728,109 Z M260.145455,96.15 L260.145455,109 L260.645455,109 L260.645455,101.725 C260.645455,101.00833 260.745454,100.325003 260.945455,99.675 C261.145456,99.0249968 261.441287,98.4541691 261.832955,97.9625 C262.224624,97.4708309 262.712119,97.0791681 263.295455,96.7875 C263.878792,96.4958319 264.553785,96.35 265.320455,96.35 C265.870458,96.35 266.391286,96.4291659 266.882955,96.5875 C267.374625,96.7458341 267.807954,96.9958316 268.182955,97.3375 C268.557957,97.6791684 268.853788,98.1124974 269.070455,98.6375 C269.287123,99.1625026 269.395455,99.7999963 269.395455,100.55 L269.395455,109 L269.895455,109 L269.895455,100.475 C269.895455,99.7249963 269.782957,99.0625029 269.557955,98.4875 C269.332954,97.9124971 269.016291,97.4291686 268.607955,97.0375 C268.19962,96.6458314 267.716292,96.350001 267.157955,96.15 C266.599619,95.949999 265.987125,95.85 265.320455,95.85 C264.687119,95.85 264.112125,95.9374991 263.595455,96.1125 C263.078786,96.2875009 262.624624,96.5333318 262.232955,96.85 C261.841287,97.1666683 261.51629,97.5333313 261.257955,97.95 C260.999621,98.3666688 260.812123,98.8249975 260.695455,99.325 L260.645455,99.325 L260.645455,96.15 L260.145455,96.15 Z M273.168183,102.675 L283.918183,102.675 C283.951516,101.791662 283.864017,100.941671 283.655683,100.125 C283.447348,99.3083293 283.114018,98.5833365 282.655683,97.95 C282.197347,97.3166635 281.605686,96.8083353 280.880683,96.425 C280.155679,96.0416648 279.293188,95.85 278.293183,95.85 C277.576513,95.85 276.87652,95.9999985 276.193183,96.3 C275.509846,96.6000015 274.909852,97.0374971 274.393183,97.6125 C273.876514,98.1875029 273.459851,98.8916625 273.143183,99.725 C272.826515,100.558338 272.668183,101.508328 272.668183,102.575 C272.668183,103.525005 272.776515,104.412496 272.993183,105.2375 C273.209851,106.062504 273.543181,106.779164 273.993183,107.3875 C274.443185,107.995836 275.022346,108.466665 275.730683,108.8 C276.43902,109.133335 277.293178,109.291667 278.293183,109.275 C279.759857,109.275 280.993178,108.862504 281.993183,108.0375 C282.993188,107.212496 283.584849,106.050008 283.768183,104.55 L283.268183,104.55 C283.051515,105.966674 282.497354,107.029163 281.605683,107.7375 C280.714012,108.445837 279.59319,108.8 278.243183,108.8 C277.326512,108.8 276.551519,108.641668 275.918183,108.325 C275.284846,108.008332 274.768185,107.575003 274.368183,107.025 C273.968181,106.474997 273.67235,105.82917 273.480683,105.0875 C273.289015,104.34583 273.18485,103.541671 273.168183,102.675 L273.168183,102.675 Z M283.418183,102.175 L273.168183,102.175 C273.218183,101.274996 273.384848,100.46667 273.668183,99.75 C273.951518,99.0333298 274.322347,98.4208359 274.780683,97.9125 C275.239018,97.4041641 275.772346,97.016668 276.380683,96.75 C276.989019,96.483332 277.643179,96.35 278.343183,96.35 C279.17652,96.35 279.909846,96.5041651 280.543183,96.8125 C281.176519,97.1208349 281.705681,97.541664 282.130683,98.075 C282.555685,98.608336 282.876515,99.2291631 283.093183,99.9375 C283.309851,100.645837 283.418183,101.391663 283.418183,102.175 L283.418183,102.175 Z M295.06591,99.95 L295.56591,99.95 C295.56591,98.5166595 295.149248,97.4750033 294.31591,96.825 C293.482573,96.1749968 292.349251,95.85 290.91591,95.85 C290.115906,95.85 289.440913,95.949999 288.89091,96.15 C288.340907,96.350001 287.890912,96.6083318 287.54091,96.925 C287.190908,97.2416683 286.940911,97.5916648 286.79091,97.975 C286.640909,98.3583353 286.56591,98.7249983 286.56591,99.075 C286.56591,99.7750035 286.690909,100.333331 286.94091,100.75 C287.190911,101.166669 287.582574,101.491666 288.11591,101.725 C288.482579,101.891668 288.899241,102.041666 289.36591,102.175 C289.832579,102.308334 290.37424,102.449999 290.99091,102.6 C291.540913,102.733334 292.082574,102.866666 292.61591,103 C293.149246,103.133334 293.620075,103.312499 294.02841,103.5375 C294.436745,103.762501 294.770075,104.049998 295.02841,104.4 C295.286745,104.750002 295.41591,105.208331 295.41591,105.775 C295.41591,106.325003 295.286745,106.791665 295.02841,107.175 C294.770075,107.558335 294.440912,107.870832 294.04091,108.1125 C293.640908,108.354168 293.195079,108.529166 292.70341,108.6375 C292.211741,108.745834 291.732579,108.8 291.26591,108.8 C289.749236,108.8 288.586747,108.462503 287.77841,107.7875 C286.970073,107.112497 286.56591,106.050007 286.56591,104.6 L286.06591,104.6 C286.06591,106.216675 286.503406,107.399996 287.37841,108.15 C288.253414,108.900004 289.549235,109.275 291.26591,109.275 C291.815913,109.275 292.370074,109.212501 292.92841,109.0875 C293.486746,108.962499 293.986741,108.758335 294.42841,108.475 C294.870079,108.191665 295.228409,107.825002 295.50341,107.375 C295.778411,106.924998 295.91591,106.375003 295.91591,105.725 C295.91591,105.10833 295.795078,104.608335 295.55341,104.225 C295.311742,103.841665 294.995079,103.525001 294.60341,103.275 C294.211741,103.024999 293.770079,102.829167 293.27841,102.6875 C292.786741,102.545833 292.290913,102.408334 291.79091,102.275 C291.090907,102.091666 290.478413,101.933334 289.95341,101.8 C289.428407,101.666666 288.940912,101.508334 288.49091,101.325 C288.057575,101.141666 287.711745,100.879168 287.45341,100.5375 C287.195075,100.195832 287.06591,99.7083365 287.06591,99.075 C287.06591,98.9583328 287.099243,98.7500015 287.16591,98.45 C287.232577,98.1499985 287.390909,97.8458349 287.64091,97.5375 C287.890911,97.2291651 288.274241,96.9541679 288.79091,96.7125 C289.307579,96.4708321 290.015906,96.35 290.91591,96.35 C291.53258,96.35 292.095074,96.416666 292.60341,96.55 C293.111746,96.683334 293.549242,96.8958319 293.91591,97.1875 C294.282579,97.4791681 294.565909,97.8499978 294.76591,98.3 C294.965911,98.7500023 295.06591,99.2999968 295.06591,99.95 L295.06591,99.95 Z M307.413637,99.95 L307.913637,99.95 C307.913637,98.5166595 307.496975,97.4750033 306.663637,96.825 C305.8303,96.1749968 304.696978,95.85 303.263637,95.85 C302.463633,95.85 301.78864,95.949999 301.238637,96.15 C300.688635,96.350001 300.238639,96.6083318 299.888637,96.925 C299.538636,97.2416683 299.288638,97.5916648 299.138637,97.975 C298.988637,98.3583353 298.913637,98.7249983 298.913637,99.075 C298.913637,99.7750035 299.038636,100.333331 299.288637,100.75 C299.538639,101.166669 299.930301,101.491666 300.463637,101.725 C300.830306,101.891668 301.246968,102.041666 301.713637,102.175 C302.180306,102.308334 302.721968,102.449999 303.338637,102.6 C303.88864,102.733334 304.430301,102.866666 304.963637,103 C305.496973,103.133334 305.967802,103.312499 306.376137,103.5375 C306.784473,103.762501 307.117803,104.049998 307.376137,104.4 C307.634472,104.750002 307.763637,105.208331 307.763637,105.775 C307.763637,106.325003 307.634472,106.791665 307.376137,107.175 C307.117803,107.558335 306.788639,107.870832 306.388637,108.1125 C305.988635,108.354168 305.542807,108.529166 305.051137,108.6375 C304.559468,108.745834 304.080306,108.8 303.613637,108.8 C302.096963,108.8 300.934475,108.462503 300.126137,107.7875 C299.3178,107.112497 298.913637,106.050007 298.913637,104.6 L298.413637,104.6 C298.413637,106.216675 298.851133,107.399996 299.726137,108.15 C300.601142,108.900004 301.896962,109.275 303.613637,109.275 C304.16364,109.275 304.717801,109.212501 305.276137,109.0875 C305.834474,108.962499 306.334469,108.758335 306.776137,108.475 C307.217806,108.191665 307.576136,107.825002 307.851137,107.375 C308.126139,106.924998 308.263637,106.375003 308.263637,105.725 C308.263637,105.10833 308.142805,104.608335 307.901137,104.225 C307.65947,103.841665 307.342806,103.525001 306.951137,103.275 C306.559469,103.024999 306.117807,102.829167 305.626137,102.6875 C305.134468,102.545833 304.63864,102.408334 304.138637,102.275 C303.438634,102.091666 302.82614,101.933334 302.301137,101.8 C301.776135,101.666666 301.28864,101.508334 300.838637,101.325 C300.405302,101.141666 300.059472,100.879168 299.801137,100.5375 C299.542803,100.195832 299.413637,99.7083365 299.413637,99.075 C299.413637,98.9583328 299.44697,98.7500015 299.513637,98.45 C299.580304,98.1499985 299.738636,97.8458349 299.988637,97.5375 C300.238639,97.2291651 300.621968,96.9541679 301.138637,96.7125 C301.655307,96.4708321 302.363633,96.35 303.263637,96.35 C303.880307,96.35 304.442802,96.416666 304.951137,96.55 C305.459473,96.683334 305.896969,96.8958319 306.263637,97.1875 C306.630306,97.4791681 306.913636,97.8499978 307.113637,98.3 C307.313638,98.7500023 307.413637,99.2999968 307.413637,99.95 L307.413637,99.95 Z" id="IT-Support-For-Your-" sketch:type="MSShapeGroup"></path>
            </g>
        </g>
    </g>
</svg>